<?xml version="1.0" encoding="UTF-8"?>
<svg version="1.1" xmlns="http://www.w3.org/2000/svg" width="239" height="100">
<path d="M0 0 C4.19920237 -0.04953687 8.39824869 -0.08578411 12.59765625 -0.10986328 C14.02542078 -0.11990427 15.45316483 -0.13353981 16.88085938 -0.15087891 C18.93624941 -0.17521152 20.99136692 -0.18650202 23.046875 -0.1953125 C24.28276367 -0.20578613 25.51865234 -0.21625977 26.79199219 -0.22705078 C29.87543756 -0.00881606 31.36855603 0.5267777 34 2 C36.65491264 1.68393897 38.61205246 1.19397377 41 0 C43.32416296 -0.08586809 45.65083307 -0.10711043 47.9765625 -0.09765625 C49.00443375 -0.09553383 49.00443375 -0.09553383 50.05307007 -0.09336853 C52.24375761 -0.08776675 54.4343433 -0.07521406 56.625 -0.0625 C58.10937352 -0.05748522 59.59374865 -0.05292228 61.078125 -0.04882812 C64.71878315 -0.03779677 68.35938164 -0.02053099 72 0 C72.495 2.97 72.495 2.97 73 6 C73.804375 5.979375 74.60875 5.95875 75.4375 5.9375 C78 6 78 6 79 7 C79.25650488 9.50804768 79.43436971 11.98379523 79.5625 14.5 C79.6042334 15.30501953 79.6459668 16.11003906 79.68896484 16.93945312 C80.08321226 25.78990524 80.11048376 34.6424566 80.125 43.5 C80.1275882 44.24290283 80.13017639 44.98580566 80.13284302 45.7512207 C80.13870565 47.88627918 80.13711143 50.02119031 80.1328125 52.15625 C80.13168457 53.40212891 80.13055664 54.64800781 80.12939453 55.93164062 C80 59 80 59 79 62 C77.35 62.33 75.7 62.66 74 63 C76.31 63 78.62 63 81 63 C81 49.8 81 36.6 81 23 C86.713125 22.896875 92.42625 22.79375 98.3125 22.6875 C100.98146362 22.58828247 100.98146362 22.58828247 103.7043457 22.48706055 C115.73406167 22.36984526 115.73406167 22.36984526 120.46435547 26.79614258 C123.33561062 29.97014277 125.64549451 33.43239235 128 37 C129.47848576 38.78883497 130.97448058 40.56360287 132.5 42.3125 C138.00820224 49.2993385 139 54.16747472 139 63 C139.66420192 65.09539892 140.48235681 67.08223626 141.3203125 69.11328125 C142.31288585 71.86852797 142.40253415 74.1151719 142 77 C140.625 78.625 140.625 78.625 139 80 C138.30387557 81.31819308 137.63341416 82.65055244 137 84 C135.93458984 83.98259766 135.93458984 83.98259766 134.84765625 83.96484375 C133.46900391 83.95130859 133.46900391 83.95130859 132.0625 83.9375 C131.14597656 83.92589844 130.22945312 83.91429688 129.28515625 83.90234375 C127.03406673 83.74050951 127.03406673 83.74050951 126 85 C125.67 85.99 125.34 86.98 125 88 C124.34 88 123.68 88 123 88 C122.7525 88.61875 122.505 89.2375 122.25 89.875 C120.73968329 92.4425384 119.7428249 92.9252406 117 94 C113.87648684 94.21446657 111.00841014 93.86588926 108 93 C105.69443175 90.7551046 104.35936775 88.61634534 102.75248718 85.8604126 C101.12068768 83.76225811 101.12068768 83.76225811 98.43733215 83.51898193 C96.90177925 83.5323056 96.90177925 83.5323056 95.33520508 83.54589844 C94.17422806 83.54620056 93.01325104 83.54650269 91.8170929 83.54681396 C89.93729988 83.57778168 89.93729988 83.57778168 88.01953125 83.609375 C86.09484261 83.61786469 86.09484261 83.61786469 84.13127136 83.62652588 C80.72299955 83.64178512 77.31541161 83.68106779 73.90740967 83.7253418 C70.4286016 83.76628922 66.94968282 83.78453566 63.47070312 83.8046875 C56.64685482 83.84756297 49.82346025 83.9158169 43 84 C42.70125977 84.78713379 42.40251953 85.57426758 42.09472656 86.38525391 C40.41168198 90.40519313 37.71118812 92.78262345 34 95 C29.83703892 95.25487517 28.20813549 94.14009119 24.75 91.8125 C21.8834474 88.88079847 20.91761515 86.94574516 20 83 C20 83.66 20 84.32 20 85 C19.32195312 84.83242187 18.64390625 84.66484375 17.9453125 84.4921875 C13.35797238 83.72560281 8.81425595 84.09124239 4.1796875 84.2578125 C1 84 1 84 -0.890625 82.828125 C-2.3741212 80.38349041 -2.47682968 78.47142983 -2.625 75.625 C-2.8354908 71.9865161 -3.210037 68.56130862 -4 65 C-2.68 64.34 -1.36 63.68 0 63 C-1.7015625 62.814375 -1.7015625 62.814375 -3.4375 62.625 C-4.613125 62.41875 -5.78875 62.2125 -7 62 C-8.24576657 59.50846686 -8.1336297 57.818732 -8.14526367 55.03125 C-8.15164352 53.99677734 -8.15802338 52.96230469 -8.16459656 51.89648438 C-8.16570938 50.77564453 -8.1668222 49.65480469 -8.16796875 48.5 C-8.17296135 46.78006836 -8.17296135 46.78006836 -8.17805481 45.02539062 C-8.18312428 42.59766034 -8.18546313 40.16992307 -8.18530273 37.7421875 C-8.18749089 34.01550918 -8.20565125 30.28912596 -8.22460938 26.5625 C-8.22754287 24.20833435 -8.22952796 21.85416729 -8.23046875 19.5 C-8.23765427 18.37916016 -8.24483978 17.25832031 -8.25224304 16.10351562 C-8.24916641 15.06904297 -8.24608978 14.03457031 -8.24291992 12.96875 C-8.24434494 12.05544922 -8.24576996 11.14214844 -8.24723816 10.20117188 C-8 8 -8 8 -6 6 C-5.34 5.896875 -4.68 5.79375 -4 5.6875 C-3.34 5.460625 -2.68 5.23375 -2 5 C-0.85461233 2.49609018 -0.85461233 2.49609018 0 0 Z M5 6 C5 20.52 5 35.04 5 50 C18.86 50.495 18.86 50.495 33 51 C33.06882907 45.07305218 33.12857499 39.14748788 33.16479492 33.22045898 C33.17989179 31.20380966 33.20037115 29.18719321 33.22631836 27.1706543 C33.26266211 24.27384329 33.2797172 21.37746594 33.29296875 18.48046875 C33.30845261 17.57725388 33.32393646 16.674039 33.33988953 15.74345398 C33.34011612 14.90280899 33.34034271 14.062164 33.34057617 13.19604492 C33.34723801 12.45658127 33.35389984 11.71711761 33.36076355 10.95524597 C32.89444718 8.42793077 32.0186932 7.54652021 30 6 C27.2905528 5.58589567 27.2905528 5.58589567 24.23828125 5.70703125 C22.72681519 5.71827026 22.72681519 5.71827026 21.18481445 5.72973633 C19.90695068 5.75704834 18.62908691 5.78436035 17.3125 5.8125 C11.2178125 5.9053125 11.2178125 5.9053125 5 6 Z M50.5 5.3125 C49.34177734 5.34633789 49.34177734 5.34633789 48.16015625 5.38085938 C43.96022262 5.49068493 43.96022262 5.49068493 40.27714539 7.26972961 C38.69176491 9.4175954 38.63554216 10.54517923 38.65942383 13.19604492 C38.65965042 14.03668991 38.65987701 14.8773349 38.66011047 15.74345398 C38.67559433 16.64666885 38.69107819 17.54988373 38.70703125 18.48046875 C38.71127609 19.40845779 38.71552094 20.33644684 38.71989441 21.29255676 C38.73669338 24.25783243 38.77434784 27.2224296 38.8125 30.1875 C38.82754526 32.19725581 38.84123394 34.20702227 38.85351562 36.21679688 C38.88404974 41.14500323 38.94276861 46.07174177 39 51 C48.24 50.67 57.48 50.34 67 50 C67 35.48 67 20.96 67 6 C61.36715354 4.87343071 56.20228547 5.06022861 50.5 5.3125 Z M86 29 C86 33.29 86 37.58 86 42 C86.33 42 86.66 42 87 42 C87 37.71 87 33.42 87 29 C86.67 29 86.34 29 86 29 Z M93 30 C93 35.94 93 41.88 93 48 C94.98 48 96.96 48 99 48 C99.99 48.33 100.98 48.66 102 49 C103.93751893 49.0471516 103.93751893 49.0471516 106.01171875 48.87890625 C107.14770508 48.80639648 107.14770508 48.80639648 108.30664062 48.73242188 C109.09232422 48.67634766 109.87800781 48.62027344 110.6875 48.5625 C111.88342773 48.48418945 111.88342773 48.48418945 113.10351562 48.40429688 C115.06936522 48.27480978 117.03473665 48.13809959 119 48 C119.28875 47.38125 119.5775 46.7625 119.875 46.125 C121 44 121 44 123 42 C121.54601271 40.18401175 120.08667675 38.37230481 118.625 36.5625 C117.81289062 35.55316406 117.00078125 34.54382812 116.1640625 33.50390625 C114.24965659 30.96471245 114.24965659 30.96471245 112 30 C110.55151418 29.91657841 109.09929131 29.89267139 107.6484375 29.90234375 C106.37226563 29.90717773 106.37226563 29.90717773 105.0703125 29.91210938 C104.18085938 29.92048828 103.29140625 29.92886719 102.375 29.9375 C101.02921875 29.94426758 101.02921875 29.94426758 99.65625 29.95117188 C97.43747169 29.96297389 95.21872757 29.98090961 93 30 Z M86 49 C87 53 87 53 87 53 Z M95 53 C95 53.33 95 53.66 95 54 C96.98 54 98.96 54 101 54 C101 53.67 101 53.34 101 53 C99.02 53 97.04 53 95 53 Z M-2 54 C-1 56 -1 56 -1 56 Z M86 57 C86 59.31 86 61.62 86 64 C86.33 64 86.66 64 87 64 C87 61.69 87 59.38 87 57 C86.67 57 86.34 57 86 57 Z M13 62 C12.67 62.66 12.34 63.32 12 64 C28.83 64 45.66 64 63 64 C63 63.67 63 63.34 63 63 C46.3230859 62.23679166 29.69425389 61.85204165 13 62 Z M28 71 C28 71.33 28 71.66 28 72 C30.31 72 32.62 72 35 72 C35 71.67 35 71.34 35 71 C32.69 71 30.38 71 28 71 Z M110 71 C110.33 71.66 110.66 72.32 111 73 C111.33 72.34 111.66 71.68 112 71 C111.34 71 110.68 71 110 71 Z M113 71 C117 72 117 72 117 72 Z M133 71 C132.34 71.66 131.68 72.32 131 73 C132.32 72.67 133.64 72.34 135 72 C134.34 71.67 133.68 71.34 133 71 Z M3 74 C3.33 74.99 3.66 75.98 4 77 C4.33 76.01 4.66 75.02 5 74 C4.34 74 3.68 74 3 74 Z M38 74 C38.99 74.99 39.98 75.98 41 77 C40.67 76.01 40.34 75.02 40 74 C39.34 74 38.68 74 38 74 Z M41 77 C42 79 42 79 42 79 Z M30 83 C30.66 83.66 31.32 84.32 32 85 C32.33 84.34 32.66 83.68 33 83 C32.01 83 31.02 83 30 83 Z " fill="#055B9B" transform="translate(97,3)"/>
<path d="M0 0 C4.19920237 -0.04953687 8.39824869 -0.08578411 12.59765625 -0.10986328 C14.02542078 -0.11990427 15.45316483 -0.13353981 16.88085938 -0.15087891 C18.93624941 -0.17521152 20.99136692 -0.18650202 23.046875 -0.1953125 C24.28276367 -0.20578613 25.51865234 -0.21625977 26.79199219 -0.22705078 C29.87543756 -0.00881606 31.36855603 0.5267777 34 2 C36.65491264 1.68393897 38.61205246 1.19397377 41 0 C43.32416296 -0.08586809 45.65083307 -0.10711043 47.9765625 -0.09765625 C49.00443375 -0.09553383 49.00443375 -0.09553383 50.05307007 -0.09336853 C52.24375761 -0.08776675 54.4343433 -0.07521406 56.625 -0.0625 C58.10937352 -0.05748522 59.59374865 -0.05292228 61.078125 -0.04882812 C64.71878315 -0.03779677 68.35938164 -0.02053099 72 0 C72.495 2.97 72.495 2.97 73 6 C73.804375 5.979375 74.60875 5.95875 75.4375 5.9375 C78 6 78 6 79 7 C79.25650488 9.50804768 79.43436971 11.98379523 79.5625 14.5 C79.6042334 15.30501953 79.6459668 16.11003906 79.68896484 16.93945312 C80.08321226 25.78990524 80.11048376 34.6424566 80.125 43.5 C80.1275882 44.24290283 80.13017639 44.98580566 80.13284302 45.7512207 C80.13870565 47.88627918 80.13711143 50.02119031 80.1328125 52.15625 C80.13168457 53.40212891 80.13055664 54.64800781 80.12939453 55.93164062 C80 59 80 59 79 62 C74.11100684 62.79352419 69.46007509 63.12631597 64.49169922 63.12939453 C63.77694427 63.13114685 63.06218933 63.13289917 62.32577515 63.13470459 C59.98538721 63.13907216 57.64507607 63.13620382 55.3046875 63.1328125 C53.66757188 63.13348685 52.03045635 63.13445798 50.39334106 63.13571167 C46.97234132 63.13718161 43.55136778 63.13505619 40.13037109 63.13037109 C35.7512854 63.12466518 31.37226088 63.12796273 26.99317741 63.13394356 C23.61654196 63.13756047 20.23992096 63.13640553 16.86328506 63.13381577 C15.24858722 63.1331501 13.63388804 63.13396232 12.01919174 63.13629532 C9.76259641 63.13884139 7.50609972 63.13495413 5.24951172 63.12939453 C3.96712616 63.12859894 2.6847406 63.12780334 1.36349487 63.12698364 C-1.58204335 63.01577932 -4.17332469 62.82668424 -7 62 C-8.24576657 59.50846686 -8.1336297 57.818732 -8.14526367 55.03125 C-8.15164352 53.99677734 -8.15802338 52.96230469 -8.16459656 51.89648438 C-8.16570938 50.77564453 -8.1668222 49.65480469 -8.16796875 48.5 C-8.17296135 46.78006836 -8.17296135 46.78006836 -8.17805481 45.02539062 C-8.18312428 42.59766034 -8.18546313 40.16992307 -8.18530273 37.7421875 C-8.18749089 34.01550918 -8.20565125 30.28912596 -8.22460938 26.5625 C-8.22754287 24.20833435 -8.22952796 21.85416729 -8.23046875 19.5 C-8.23765427 18.37916016 -8.24483978 17.25832031 -8.25224304 16.10351562 C-8.24916641 15.06904297 -8.24608978 14.03457031 -8.24291992 12.96875 C-8.24434494 12.05544922 -8.24576996 11.14214844 -8.24723816 10.20117188 C-8 8 -8 8 -6 6 C-5.34 5.896875 -4.68 5.79375 -4 5.6875 C-3.34 5.460625 -2.68 5.23375 -2 5 C-0.85461233 2.49609018 -0.85461233 2.49609018 0 0 Z M5 6 C5 20.52 5 35.04 5 50 C18.86 50.495 18.86 50.495 33 51 C33.06882907 45.07305218 33.12857499 39.14748788 33.16479492 33.22045898 C33.17989179 31.20380966 33.20037115 29.18719321 33.22631836 27.1706543 C33.26266211 24.27384329 33.2797172 21.37746594 33.29296875 18.48046875 C33.30845261 17.57725388 33.32393646 16.674039 33.33988953 15.74345398 C33.34011612 14.90280899 33.34034271 14.062164 33.34057617 13.19604492 C33.34723801 12.45658127 33.35389984 11.71711761 33.36076355 10.95524597 C32.89444718 8.42793077 32.0186932 7.54652021 30 6 C27.2905528 5.58589567 27.2905528 5.58589567 24.23828125 5.70703125 C22.72681519 5.71827026 22.72681519 5.71827026 21.18481445 5.72973633 C19.90695068 5.75704834 18.62908691 5.78436035 17.3125 5.8125 C11.2178125 5.9053125 11.2178125 5.9053125 5 6 Z M50.5 5.3125 C49.34177734 5.34633789 49.34177734 5.34633789 48.16015625 5.38085938 C43.96022262 5.49068493 43.96022262 5.49068493 40.27714539 7.26972961 C38.69176491 9.4175954 38.63554216 10.54517923 38.65942383 13.19604492 C38.65965042 14.03668991 38.65987701 14.8773349 38.66011047 15.74345398 C38.67559433 16.64666885 38.69107819 17.54988373 38.70703125 18.48046875 C38.71127609 19.40845779 38.71552094 20.33644684 38.71989441 21.29255676 C38.73669338 24.25783243 38.77434784 27.2224296 38.8125 30.1875 C38.82754526 32.19725581 38.84123394 34.20702227 38.85351562 36.21679688 C38.88404974 41.14500323 38.94276861 46.07174177 39 51 C48.24 50.67 57.48 50.34 67 50 C67 35.48 67 20.96 67 6 C61.36715354 4.87343071 56.20228547 5.06022861 50.5 5.3125 Z M-2 54 C-1 56 -1 56 -1 56 Z " fill="#469BC1" transform="translate(97,3)"/>
<path d="M0 0 C3 3.75 3 3.75 3 6 C3.66 6 4.32 6 5 6 C6 8 6 8 5.875 11.625 C5.80266479 15.61790335 6.81423747 18.46284224 8.3203125 22.11328125 C9.31288585 24.86852797 9.40253415 27.1151719 9 30 C7.625 31.625 7.625 31.625 6 33 C5.30387557 34.31819308 4.63341416 35.65055244 4 37 C3.28972656 36.98839844 2.57945312 36.97679687 1.84765625 36.96484375 C0.92855469 36.95582031 0.00945312 36.94679687 -0.9375 36.9375 C-1.85402344 36.92589844 -2.77054687 36.91429687 -3.71484375 36.90234375 C-5.96593327 36.74050951 -5.96593327 36.74050951 -7 38 C-7.33 38.99 -7.66 39.98 -8 41 C-8.66 41 -9.32 41 -10 41 C-10.37125 41.928125 -10.37125 41.928125 -10.75 42.875 C-12.26031671 45.4425384 -13.2571751 45.9252406 -16 47 C-19.12351316 47.21446657 -21.99158986 46.86588926 -25 46 C-27.30556825 43.7551046 -28.64063225 41.61634534 -30.24751282 38.8604126 C-31.87931232 36.76225811 -31.87931232 36.76225811 -34.56266785 36.51898193 C-36.09822075 36.5323056 -36.09822075 36.5323056 -37.66479492 36.54589844 C-38.82577194 36.54620056 -39.98674896 36.54650269 -41.1829071 36.54681396 C-43.06270012 36.57778168 -43.06270012 36.57778168 -44.98046875 36.609375 C-46.90515739 36.61786469 -46.90515739 36.61786469 -48.86872864 36.62652588 C-52.27700045 36.64178512 -55.68458839 36.68106779 -59.09259033 36.7253418 C-62.5713984 36.76628922 -66.05031718 36.78453566 -69.52929688 36.8046875 C-76.35314518 36.84756297 -83.17653975 36.9158169 -90 37 C-90.29874023 37.78713379 -90.59748047 38.57426758 -90.90527344 39.38525391 C-92.58831802 43.40519313 -95.28881188 45.78262345 -99 48 C-103.16296108 48.25487517 -104.79186451 47.14009119 -108.25 44.8125 C-111.1165526 41.88079847 -112.08238485 39.94574516 -113 36 C-113 36.66 -113 37.32 -113 38 C-114.32 37.67 -115.64 37.34 -117 37 C-117.33 35.68 -117.66 34.36 -118 33 C-116.515 32.505 -116.515 32.505 -115 32 C-115 31.34 -115 30.68 -115 30 C-114.34 30 -113.68 30 -113 30 C-112.71125 29.360625 -112.4225 28.72125 -112.125 28.0625 C-111 26 -111 26 -109 25 C-108.34 23.68 -107.68 22.36 -107 21 C-102.71 21 -98.42 21 -94 21 C-94 21.99 -94 22.98 -94 24 C-91.69 24.33 -89.38 24.66 -87 25 C-86.34 27.64 -85.68 30.28 -85 33 C-78.07728981 33.24409659 -71.15413097 33.45660133 -64.22973633 33.64697266 C-61.87339254 33.71550785 -59.51724893 33.791323 -57.16137695 33.87451172 C-53.77841751 33.99271236 -50.39560607 34.08486709 -47.01171875 34.171875 C-45.95538742 34.21439392 -44.89905609 34.25691284 -43.81071472 34.30072021 C-42.82992447 34.32104309 -41.84913422 34.34136597 -40.83862305 34.36230469 C-39.97480515 34.38895203 -39.11098724 34.41559937 -38.22099304 34.4430542 C-35.85574171 34.19245724 -35.85574171 34.19245724 -34.29133606 32.20782471 C-32.8256491 29.82215463 -32.8256491 29.82215463 -31.5 26.3125 C-31.005 25.219375 -30.51 24.12625 -30 23 C-27.23434618 22.07811539 -25.61716298 21.88214778 -22.76953125 21.90234375 C-21.56586914 21.90717773 -21.56586914 21.90717773 -20.33789062 21.91210938 C-19.08782227 21.92467773 -19.08782227 21.92467773 -17.8125 21.9375 C-16.96751953 21.94201172 -16.12253906 21.94652344 -15.25195312 21.95117188 C-13.16793845 21.96294597 -11.08396023 21.9808811 -9 22 C-7.5393715 24.64738916 -7 25.89448334 -7 29 C-4.36095629 30.41377341 -1.92879371 31.37240135 1 32 C1.33 30.35 1.66 28.7 2 27 C0.02 27.33 -1.96 27.66 -4 28 C-4 27.34 -4 26.68 -4 26 C-4.66 26 -5.32 26 -6 26 C-6 25.34 -6 24.68 -6 24 C-3.09451118 21.95830515 -1.59857954 21 2 21 C2 16.05 2 11.1 2 6 C1.34 6 0.68 6 0 6 C-0.38218767 4.34385343 -0.71395102 2.67542976 -1 1 C-0.67 0.67 -0.34 0.34 0 0 Z M-105 24 C-105 24.33 -105 24.66 -105 25 C-102.69 25 -100.38 25 -98 25 C-98 24.67 -98 24.34 -98 24 C-100.31 24 -102.62 24 -105 24 Z M-23 24 C-22.67 24.66 -22.34 25.32 -22 26 C-21.67 25.34 -21.34 24.68 -21 24 C-21.66 24 -22.32 24 -23 24 Z M-20 24 C-16 25 -16 25 -16 25 Z M0 24 C-0.66 24.66 -1.32 25.32 -2 26 C-0.68 25.67 0.64 25.34 2 25 C1.34 24.67 0.68 24.34 0 24 Z M-95 27 C-94.01 27.99 -93.02 28.98 -92 30 C-92.33 29.01 -92.66 28.02 -93 27 C-93.66 27 -94.32 27 -95 27 Z M-92 30 C-91 32 -91 32 -91 32 Z M-103 36 C-102.34 36.66 -101.68 37.32 -101 38 C-100.67 37.34 -100.34 36.68 -100 36 C-100.99 36 -101.98 36 -103 36 Z " fill="#11527E" transform="translate(230,50)"/>
<path d="M0 0 C5.713125 -0.103125 11.42625 -0.20625 17.3125 -0.3125 C19.98146362 -0.41171753 19.98146362 -0.41171753 22.7043457 -0.51293945 C34.73251197 -0.63030599 34.73251197 -0.63030599 39.4621582 3.79174805 C42.33557825 6.96670142 44.64573838 10.4295881 47 14 C48.49725187 15.83202814 50.01365272 17.64887976 51.5625 19.4375 C54.38303786 22.80924485 55.77704066 25.77135949 57 30 C56.34 30 55.68 30 55 30 C54.67 29.05125 54.34 28.1025 54 27.125 C51.82716085 23.72993883 51.48109578 23.50806022 47.8125 22.625 C46.554375 22.41875 45.29625 22.2125 44 22 C43.67 22.99 43.34 23.98 43 25 C40.4375 26.1875 40.4375 26.1875 38 27 C38 27.66 38 28.32 38 29 C33.05 29 28.1 29 23 29 C23 29.99 23 30.98 23 32 C19.17010894 33.80230168 16.21878192 34.19622241 12 34 C12.4021875 34.8353125 12.4021875 34.8353125 12.8125 35.6875 C13 38 13 38 10.8125 40.625 C8.53083065 42.55174301 6.73406439 43.88612192 4 45 C3.01 44.01 2.02 43.02 1 42 C1 42.66 1 43.32 1 44 C-5.3889215 44.25054594 -5.3889215 44.25054594 -8.43258667 43.00262451 C-11.15563185 41.93922276 -12.98747167 41.77616596 -15.89111328 41.83300781 C-17.30881516 41.85358246 -17.30881516 41.85358246 -18.75515747 41.87457275 C-19.76665863 41.900495 -20.77815979 41.92641724 -21.8203125 41.953125 C-22.87475555 41.97340759 -23.92919861 41.99369019 -25.01559448 42.0145874 C-27.24650906 42.06011669 -29.47732207 42.11088145 -31.70800781 42.16650391 C-35.09166426 42.24918542 -38.47524388 42.31140281 -41.859375 42.37109375 C-44.03388116 42.41803664 -46.20836188 42.46617609 -48.3828125 42.515625 C-49.38216827 42.53345032 -50.38152405 42.55127563 -51.41116333 42.56964111 C-57.31058373 42.73073553 -62.88109933 43.3834652 -68.66227722 44.58181763 C-71.60026862 45.10737875 -74.23489648 45.008455 -77.1875 44.625 C-78.10917969 44.51414063 -79.03085938 44.40328125 -79.98046875 44.2890625 C-80.64691406 44.19367188 -81.31335938 44.09828125 -82 44 C-81.67 45.98 -81.34 47.96 -81 50 C-78.525 49.505 -78.525 49.505 -76 49 C-76 49.66 -76 50.32 -76 51 C-76.66 51 -77.32 51 -78 51 C-78 53.31 -78 55.62 -78 58 C-75.46739788 58.77926219 -73.55921323 58.99118426 -70.875 58.9375 C-68 59 -68 59 -66 61 C-68.27024968 61.08097324 -70.54132075 61.13917704 -72.8125 61.1875 C-74.70935547 61.23970703 -74.70935547 61.23970703 -76.64453125 61.29296875 C-80 61 -80 61 -81.91015625 59.82421875 C-83.36958736 57.38137169 -83.4775268 55.45803785 -83.625 52.625 C-83.8354908 48.9865161 -84.210037 45.56130862 -85 42 C-77.07373062 38.69738776 -77.07373062 38.69738776 -74.32037354 39.47337341 C-71.16079569 40.19046386 -68.17637315 40.11918946 -64.93652344 40.11352539 C-64.23368225 40.11367142 -63.53084106 40.11381744 -62.80670166 40.1139679 C-60.49089437 40.11327299 -58.17516819 40.10550038 -55.859375 40.09765625 C-54.25083459 40.09579057 -52.64229362 40.09436737 -51.03375244 40.09336853 C-46.80544458 40.08955516 -42.57717121 40.07973495 -38.34887695 40.06866455 C-33.27274285 40.05662393 -28.19659719 40.05204257 -23.12045288 40.04621124 C-15.41361129 40.03652257 -7.70684533 40.01735776 0 40 C0 26.8 0 13.6 0 0 Z M5 6 C5 10.29 5 14.58 5 19 C5.33 19 5.66 19 6 19 C6 14.71 6 10.42 6 6 C5.67 6 5.34 6 5 6 Z M12 7 C12 12.94 12 18.88 12 25 C13.98 25 15.96 25 18 25 C18.99 25.33 19.98 25.66 21 26 C22.93751893 26.0471516 22.93751893 26.0471516 25.01171875 25.87890625 C26.14770508 25.80639648 26.14770508 25.80639648 27.30664062 25.73242188 C28.09232422 25.67634766 28.87800781 25.62027344 29.6875 25.5625 C30.88342773 25.48418945 30.88342773 25.48418945 32.10351562 25.40429688 C34.06936522 25.27480978 36.03473665 25.13809959 38 25 C38.28875 24.38125 38.5775 23.7625 38.875 23.125 C40 21 40 21 42 19 C40.54601271 17.18401175 39.08667675 15.37230481 37.625 13.5625 C36.81289062 12.55316406 36.00078125 11.54382813 35.1640625 10.50390625 C33.24965659 7.96471245 33.24965659 7.96471245 31 7 C29.55151418 6.91657841 28.09929131 6.89267139 26.6484375 6.90234375 C25.37226563 6.90717773 25.37226563 6.90717773 24.0703125 6.91210938 C23.18085938 6.92048828 22.29140625 6.92886719 21.375 6.9375 C20.02921875 6.94426758 20.02921875 6.94426758 18.65625 6.95117188 C16.43747169 6.96297389 14.21872757 6.98090961 12 7 Z M5 26 C6 30 6 30 6 30 Z M14 30 C14 30.33 14 30.66 14 31 C15.98 31 17.96 31 20 31 C20 30.67 20 30.34 20 30 C18.02 30 16.04 30 14 30 Z M5 34 C5 36.31 5 38.62 5 41 C5.33 41 5.66 41 6 41 C6 38.69 6 36.38 6 34 C5.67 34 5.34 34 5 34 Z " fill="#14527F" transform="translate(178,26)"/>
<path d="M0 0 C4.29 0 8.58 0 13 0 C13 0.33 13 0.66 13 1 C12.30132812 1.02578125 11.60265625 1.0515625 10.8828125 1.078125 C9.97273438 1.13484375 9.06265625 1.1915625 8.125 1.25 C7.22007813 1.29640625 6.31515625 1.3428125 5.3828125 1.390625 C2.91270083 1.76224277 2.91270083 1.76224277 1.71875 3.65625 C0.83280992 6.54518503 0.57159456 9.23555007 0.375 12.25 C0.30023438 13.32765625 0.22546875 14.4053125 0.1484375 15.515625 C0.09945312 16.33546875 0.05046875 17.1553125 0 18 C-2.89884776 14.50007882 -3.31147566 12.56830973 -3 8 C-3.66 8 -4.32 8 -5 8 C-5 23.18 -5 38.36 -5 54 C-3.68 54.33 -2.36 54.66 -1 55 C-0.34 54.34 0.32 53.68 1 53 C3.15478516 52.86474609 3.15478516 52.86474609 5.7890625 53.0234375 C6.73007813 53.075 7.67109375 53.1265625 8.640625 53.1796875 C10.11789063 53.27636719 10.11789063 53.27636719 11.625 53.375 C13.11386719 53.46007813 13.11386719 53.46007813 14.6328125 53.546875 C17.08924767 53.68859241 19.54469735 53.84002277 22 54 C22 53.01 22 52.02 22 51 C21.00818726 51.05329468 21.00818726 51.05329468 19.99633789 51.10766602 C17.01864712 51.26466247 14.04061043 51.41368634 11.0625 51.5625 C10.02158203 51.61857422 8.98066406 51.67464844 7.90820312 51.73242188 C6.42416992 51.80493164 6.42416992 51.80493164 4.91015625 51.87890625 C3.99371338 51.9260376 3.07727051 51.97316895 2.13305664 52.02172852 C0 52 0 52 -1 51 C-1.25299591 47.04816132 -1.18522734 43.08397741 -1.1875 39.125 C-1.19974609 38.00996094 -1.21199219 36.89492188 -1.22460938 35.74609375 C-1.22654297 34.67746094 -1.22847656 33.60882813 -1.23046875 32.5078125 C-1.23457764 31.52441895 -1.23868652 30.54102539 -1.24291992 29.52783203 C-1 27 -1 27 1 24 C1.02505615 24.69150146 1.0501123 25.38300293 1.07592773 26.09545898 C1.19152161 29.20967866 1.31441242 32.32356789 1.4375 35.4375 C1.47681641 36.52611328 1.51613281 37.61472656 1.55664062 38.73632812 C1.61948242 40.28803711 1.61948242 40.28803711 1.68359375 41.87109375 C1.72025146 42.82943115 1.75690918 43.78776855 1.79467773 44.77514648 C1.75834424 46.97138925 1.75834424 46.97138925 3 48 C5.3756852 48.0883967 7.72208674 48.11530305 10.09765625 48.09765625 C10.80651474 48.0962413 11.51537323 48.09482635 12.24571228 48.09336853 C14.51801712 48.08775443 16.79022475 48.07519963 19.0625 48.0625 C20.59960796 48.05748681 22.13671745 48.05292359 23.67382812 48.04882812 C27.44925642 48.03778042 31.22461171 48.02050641 35 48 C35.66 49.32 36.32 50.64 37 52 C41.455 51.505 41.455 51.505 46 51 C45.67 51.99 45.34 52.98 45 54 C54.9 53.67 64.8 53.34 75 53 C75 53.99 75 54.98 75 56 C73.02 56 71.04 56 69 56 C69 56.66 69 57.32 69 58 C65.07141081 58.05012431 61.14295016 58.08605502 57.21411133 58.10986328 C55.23447104 58.12464917 53.25491937 58.15008592 51.27539062 58.17578125 C43.61271989 58.21457958 36.47412042 57.72892028 29 56 C29 56.66 29 57.32 29 58 C21.41 58 13.82 58 6 58 C6 58.66 6 59.32 6 60 C1.71 59.34 -2.58 58.68 -7 58 C-7.95488694 52.25598024 -8.24089699 46.61351803 -8.38671875 40.796875 C-8.41224319 39.83726868 -8.43776764 38.87766235 -8.46406555 37.88897705 C-8.51582936 35.87200521 -8.56528354 33.8549729 -8.61254883 31.83789062 C-8.68760388 28.74572043 -8.77816389 25.65423756 -8.86914062 22.5625 C-8.91761922 20.59898162 -8.96517754 18.63544026 -9.01171875 16.671875 C-9.04077805 15.74687195 -9.06983734 14.8218689 -9.09977722 13.86883545 C-9.11672134 13.0107428 -9.13366547 12.15265015 -9.15112305 11.26855469 C-9.17031296 10.51467468 -9.18950287 9.76079468 -9.20927429 8.98406982 C-9 7 -9 7 -7 4 C-3.875 3.3125 -3.875 3.3125 -1 3 C-0.67 2.01 -0.34 1.02 0 0 Z " fill="#33ABE2" transform="translate(99,6)"/>
<path d="M0 0 C1.49249268 0.01571045 1.49249268 0.01571045 3.01513672 0.03173828 C4.6296875 0.04140625 4.6296875 0.04140625 6.27685547 0.05126953 C7.40478516 0.06802734 8.53271484 0.08478516 9.69482422 0.10205078 C11.39832031 0.11558594 11.39832031 0.11558594 13.13623047 0.12939453 C15.94763721 0.1530198 18.7586272 0.18596065 21.56982422 0.22705078 C22.44086628 6.0677592 22.64101368 11.7923158 22.59716797 17.69189453 C22.58890488 18.83750351 22.58890488 18.83750351 22.58047485 20.0062561 C22.5527077 23.20993763 22.51756835 26.41343882 22.47387695 29.61694336 C22.443815 31.97526815 22.42596647 34.33344037 22.40966797 36.69189453 C22.39620834 37.41892075 22.38274872 38.14594696 22.36888123 38.89500427 C22.35993234 40.67359227 22.45613655 42.45207741 22.56982422 44.22705078 C23.22982422 44.88705078 23.88982422 45.54705078 24.56982422 46.22705078 C23.57982422 46.22705078 22.58982422 46.22705078 21.56982422 46.22705078 C21.56982422 48.53705078 21.56982422 50.84705078 21.56982422 53.22705078 C17.08583638 53.32608551 12.6024313 53.39859561 8.11767578 53.44677734 C6.59282336 53.46686677 5.06804774 53.49414394 3.54345703 53.52880859 C1.34892824 53.57744874 -0.84458047 53.60004474 -3.03955078 53.61767578 C-5.01906738 53.64909668 -5.01906738 53.64909668 -7.03857422 53.68115234 C-10.43017578 53.22705078 -10.43017578 53.22705078 -12.85180664 51.82421875 C-15.3017231 47.7929409 -15.05307744 43.91675689 -15.07470703 39.28173828 C-15.09361496 38.31551544 -15.11252289 37.3492926 -15.13200378 36.35379028 C-15.16846877 34.3147786 -15.19561943 32.275582 -15.21411133 30.23632812 C-15.24263682 27.10632562 -15.29769837 23.97768298 -15.35791016 20.84814453 C-15.39004846 18.86770016 -15.42069863 16.88723097 -15.44970703 14.90673828 C-15.46419388 13.96716278 -15.47868073 13.02758728 -15.49360657 12.05953979 C-15.50079208 11.19168854 -15.5079776 10.32383728 -15.51538086 9.4296875 C-15.52330154 8.66453827 -15.53122223 7.89938904 -15.53938293 7.11105347 C-15.43017578 5.22705078 -15.43017578 5.22705078 -14.43017578 3.22705078 C-13.11017578 3.22705078 -11.79017578 3.22705078 -10.43017578 3.22705078 C-10.43017578 18.40705078 -10.43017578 33.58705078 -10.43017578 49.22705078 C-9.44017578 48.73205078 -9.44017578 48.73205078 -8.43017578 48.22705078 C-6.47081539 48.14194873 -4.50854784 48.11987422 -2.54736328 48.12939453 C-1.49661621 48.13189209 -0.44586914 48.13438965 0.63671875 48.13696289 C1.97589355 48.14606689 3.31506836 48.1551709 4.69482422 48.16455078 C8.94357422 48.18517578 13.19232422 48.20580078 17.56982422 48.22705078 C17.56982422 33.70705078 17.56982422 19.18705078 17.56982422 4.22705078 C12.61982422 4.22705078 7.66982422 4.22705078 2.56982422 4.22705078 C0.25982422 3.56705078 -2.05017578 2.90705078 -4.43017578 2.22705078 C-2.43017578 0.22705078 -2.43017578 0.22705078 0 0 Z " fill="#3D9BC6" transform="translate(146.43017578125,4.77294921875)"/>
<path d="M0 0 C2.69204148 -0.2863593 5.15319556 -0.37835144 7.84619141 -0.34057617 C8.65602982 -0.34101425 9.46586823 -0.34145233 10.30024719 -0.34190369 C12.98426194 -0.33980914 15.66765652 -0.31644717 18.3515625 -0.29296875 C20.20958108 -0.28737515 22.06760408 -0.28310394 23.92562866 -0.28010559 C28.82153489 -0.26863819 33.71717512 -0.2391548 38.61297607 -0.20599365 C43.60653077 -0.17533352 48.60012835 -0.16160895 53.59375 -0.14648438 C63.39595036 -0.11428685 73.19795308 -0.06306771 83 0 C84.0625 1.875 84.0625 1.875 85 4 C84.67 4.66 84.34 5.32 84 6 C75.45445946 7.48858956 66.69025731 7.20113555 58.0390625 7.23828125 C57.23465099 7.24235678 56.43023949 7.2464323 55.60145187 7.25063133 C51.35751361 7.27135823 47.11360656 7.28572678 42.86962891 7.29516602 C38.48795795 7.30630776 34.10678404 7.34083315 29.7252903 7.38033772 C26.34873485 7.4064162 22.97230085 7.41484911 19.59565353 7.41844749 C17.97926788 7.42332256 16.36288798 7.43496275 14.7466011 7.45348549 C12.49422791 7.47773039 10.24318525 7.47694184 7.99072266 7.4699707 C6.70992828 7.47583694 5.42913391 7.48170319 4.10952759 7.48774719 C1 7 1 7 -0.93692017 4.97062683 C-1.28773651 4.32031998 -1.63855286 3.67001312 -2 3 C-1.34 2.01 -0.68 1.02 0 0 Z " fill="#105680" transform="translate(2,51)"/>
<path d="M0 0 C28.15497813 -1.24985185 28.15497813 -1.24985185 34.16015625 3.609375 C37.03494562 6.72705087 38.96965747 10.29493502 41 14 C42.48747795 15.83997272 44.00599849 17.65553667 45.5625 19.4375 C48.38303786 22.80924485 49.77704066 25.77135949 51 30 C50.34 30 49.68 30 49 30 C48.505 28.576875 48.505 28.576875 48 27.125 C45.82716085 23.72993883 45.48109578 23.50806022 41.8125 22.625 C39.9253125 22.315625 39.9253125 22.315625 38 22 C37.505 23.485 37.505 23.485 37 25 C33.9788566 27.0140956 33.19339983 27.26836596 29.76953125 27.4140625 C28.56586914 27.47207031 28.56586914 27.47207031 27.33789062 27.53125 C26.50451172 27.5621875 25.67113281 27.593125 24.8125 27.625 C23.96751953 27.66367187 23.12253906 27.70234375 22.25195312 27.7421875 C20.16832476 27.83636279 18.08419247 27.91926675 16 28 C16 28.66 16 29.32 16 30 C14.02 30 12.04 30 10 30 C9.67 29.34 9.34 28.68 9 28 C9.33 27.01 9.66 26.02 10 25 C10.99 24.67 11.98 24.34 13 24 C13 24.66 13 25.32 13 26 C13.66 25.67 14.32 25.34 15 25 C17.88370333 24.92805131 20.74239664 24.90708292 23.625 24.9375 C24.42679688 24.94201172 25.22859375 24.94652344 26.0546875 24.95117188 C28.03649006 24.96296832 30.01825433 24.98090395 32 25 C33.50930183 21.6136749 33.50930183 21.6136749 34 18 C32.92962939 16.44023534 31.79447565 14.92440475 30.625 13.4375 C29.99851563 12.63183594 29.37203125 11.82617188 28.7265625 10.99609375 C26.8304435 8.80397428 25.89853558 8.09359282 23.02880859 7.79467773 C22.24328613 7.75802002 21.45776367 7.7213623 20.6484375 7.68359375 C19.79765625 7.64169922 18.946875 7.59980469 18.0703125 7.55664062 C17.18085938 7.51732422 16.29140625 7.47800781 15.375 7.4375 C14.4778125 7.39431641 13.580625 7.35113281 12.65625 7.30664062 C10.43768761 7.20043285 8.21886435 7.09970041 6 7 C6 12.94 6 18.88 6 25 C6.66 25.33 7.32 25.66 8 26 C7.21625 26.0825 6.4325 26.165 5.625 26.25 C2.85250896 26.72806339 2.85250896 26.72806339 1.6875 29.0625 C1.460625 29.701875 1.23375 30.34125 1 31 C0.34 30.67 -0.32 30.34 -1 30 C-0.979375 29.195625 -0.95875 28.39125 -0.9375 27.5625 C-0.70366379 25.06645115 -0.70366379 25.06645115 -2 24 C-2.04063832 22.33382885 -2.042721 20.66611905 -2 19 C-1.01 19 -0.02 19 1 19 C1.0825 17.80375 1.165 16.6075 1.25 15.375 C1.55296 10.98208004 2.95344162 8.18992584 6 5 C9.74273459 4.10446624 13.41516629 4.11526692 17.25 4.125 C18.28125 4.104375 19.3125 4.08375 20.375 4.0625 C22.91747285 4.01541717 25.45718042 3.99555673 28 4 C25.52059288 2.76029644 23.90195069 2.90122968 21.1328125 2.9375 C20.16472656 2.94523437 19.19664062 2.95296875 18.19921875 2.9609375 C16.15755082 2.98687991 14.11588414 3.01292082 12.07421875 3.0390625 C11.10355469 3.04679687 10.13289062 3.05453125 9.1328125 3.0625 C7.80080811 3.07990234 7.80080811 3.07990234 6.44189453 3.09765625 C4.14107789 3.00564199 2.20125079 2.65032591 0 2 C0 1.34 0 0.68 0 0 Z " fill="#154E73" transform="translate(184,26)"/>
<path d="M0 0 C24.75 0 49.5 0 75 0 C76 4 76 4 74.99687195 5.72871399 C72.01180411 7.62912377 69.56807581 7.35899516 66.05004883 7.34057617 C65.34735367 7.34101425 64.64465851 7.34145233 63.92066956 7.34190369 C61.59917364 7.33981447 59.27840091 7.31647819 56.95703125 7.29296875 C55.34706517 7.28737324 53.73709398 7.28310293 52.12712097 7.28010559 C47.89045093 7.26865318 43.6540896 7.23918279 39.4175415 7.20599365 C35.0941587 7.17530119 30.77072599 7.16160203 26.44726562 7.14648438 C17.9647021 7.1143133 9.48238946 7.06311238 1 7 C0.67 4.69 0.34 2.38 0 0 Z " fill="#0E5685" transform="translate(11,22)"/>
<path d="M0 0 C1.4855532 0.25716759 2.96482429 0.55215372 4.4375 0.875 C5.58025391 1.11863281 5.58025391 1.11863281 6.74609375 1.3671875 C10.83644331 2.51560453 12.59536279 3.39304418 15 7 C15 7.99 15 8.98 15 10 C16.8871875 10.0309375 16.8871875 10.0309375 18.8125 10.0625 C19.52019531 10.07410156 20.22789062 10.08570312 20.95703125 10.09765625 C23.20305461 10.08263217 23.20305461 10.08263217 26 9 C25.67 10.32 25.34 11.64 25 13 C24.28972656 12.98839844 23.57945312 12.97679688 22.84765625 12.96484375 C21.92855469 12.95582031 21.00945312 12.94679688 20.0625 12.9375 C19.14597656 12.92589844 18.22945312 12.91429688 17.28515625 12.90234375 C15.03406673 12.74050951 15.03406673 12.74050951 14 14 C13.67 14.99 13.34 15.98 13 17 C12.34 17 11.68 17 11 17 C10.7525 17.61875 10.505 18.2375 10.25 18.875 C8.73968329 21.4425384 7.7428249 21.9252406 5 23 C1.87648684 23.21446657 -0.99158986 22.86588926 -4 22 C-6.375 19.6875 -6.375 19.6875 -8 17 C-10.27073145 13.6022626 -10.27073145 13.6022626 -14 12 C-13.360625 11.401875 -12.72125 10.80375 -12.0625 10.1875 C-9.79689611 8.09189663 -9.79689611 8.09189663 -9 5 C-8.34 5 -7.68 5 -7 5 C-6.67 4.34 -6.34 3.68 -6 3 C-3.46153846 0 -3.46153846 0 0 0 Z " fill="#1C2C41" transform="translate(209,74)"/>
<path d="M0 0 C1.32 0 2.64 0 4 0 C4 5.28 4 10.56 4 16 C4.66 16.33 5.32 16.66 6 17 C6.02472039 21.64477144 6.04286968 26.28950457 6.05493164 30.93432617 C6.05996014 32.51441108 6.06678378 34.09449134 6.07543945 35.67456055 C6.08756992 37.94581246 6.09324313 40.21700285 6.09765625 42.48828125 C6.10281754 43.19463211 6.10797882 43.90098297 6.11329651 44.6287384 C6.11364803 47.70254391 5.9803186 50.0590442 5 53 C0.39683316 53.73591164 -4.00986987 54.12275273 -8.66967773 54.11352539 C-9.95047714 54.11344986 -11.23127655 54.11337433 -12.55088806 54.11329651 C-13.92845703 54.10819145 -15.30602559 54.10297548 -16.68359375 54.09765625 C-18.1084844 54.0957886 -19.53337569 54.09436634 -20.95826721 54.09336853 C-24.6884034 54.08957066 -28.41849996 54.07976402 -32.14862061 54.06866455 C-35.96300725 54.05839141 -39.77740036 54.05385832 -43.59179688 54.04882812 C-51.06121588 54.03813902 -58.53060236 54.0210958 -66 54 C-66 53.34 -66 52.68 -66 52 C-58.41 52 -50.82 52 -43 52 C-43 51.34 -43 50.68 -43 50 C-42.38213623 50.06566162 -41.76427246 50.13132324 -41.12768555 50.19897461 C-33.02970521 51.00279382 -24.94422526 51.31485385 -16.8125 51.5625 C-15.46548532 51.60582646 -14.11847999 51.64944448 -12.77148438 51.69335938 C-9.51440273 51.79842652 -6.25725803 51.90057834 -3 52 C-3 51.34 -3 50.68 -3 50 C-1.02 50 0.96 50 3 50 C3 49.01 3 48.02 3 47 C1.515 47.495 1.515 47.495 0 48 C-2.06498892 48.08315752 -4.1325789 48.10735878 -6.19921875 48.09765625 C-7.40771484 48.09443359 -8.61621094 48.09121094 -9.86132812 48.08789062 C-11.7552832 48.07532227 -11.7552832 48.07532227 -13.6875 48.0625 C-15.59885742 48.05573242 -15.59885742 48.05573242 -17.54882812 48.04882812 C-20.69926564 48.03702873 -23.84960949 48.02056597 -27 48 C-26.67 47.01 -26.34 46.02 -26 45 C-23.2915983 44.97285566 -20.58347279 44.95309154 -17.875 44.9375 C-17.11445313 44.92912109 -16.35390625 44.92074219 -15.5703125 44.91210938 C-11.2610356 44.89353491 -7.24483526 45.13882735 -3 46 C-3 43.69 -3 41.38 -3 39 C-2.67 39 -2.34 39 -2 39 C-1.505 42.465 -1.505 42.465 -1 46 C-0.34 46 0.32 46 1 46 C0.67 30.82 0.34 15.64 0 0 Z " fill="#3BA1D8" transform="translate(171,12)"/>
<path d="M0 0 C0.66 0.33 1.32 0.66 2 1 C2 14.53 2 28.06 2 42 C10.09254202 41.92096049 10.09254202 41.92096049 18.18481445 41.81982422 C19.1924585 41.8148291 20.20010254 41.80983398 21.23828125 41.8046875 C22.26993408 41.79421387 23.30158691 41.78374023 24.36450195 41.77294922 C27 42 27 42 30 44 C26.04903022 44.04939662 22.0981797 44.08571755 18.14697266 44.10986328 C16.1408864 44.12488107 14.13488676 44.15028981 12.12890625 44.17578125 C10.87207031 44.18222656 9.61523438 44.18867187 8.3203125 44.1953125 C7.15773926 44.20578613 5.99516602 44.21625977 4.79736328 44.22705078 C2 44 2 44 0 42 C-0.31884766 39.93701172 -0.31884766 39.93701172 -0.4140625 37.4296875 C-0.44967285 36.62257324 -0.4852832 35.81545898 -0.52197266 34.98388672 C-0.57297119 33.44498779 -0.57297119 33.44498779 -0.625 31.875 C-0.74875 28.61625 -0.8725 25.3575 -1 22 C-1 29.92 -1 37.84 -1 46 C6.26 46 13.52 46 21 46 C21 46.99 21 47.98 21 49 C14.07 49 7.14 49 0 49 C-0.33 49.66 -0.66 50.32 -1 51 C-2.65 50.67 -4.3 50.34 -6 50 C-7.31074078 45.10568512 -7.03073607 40.33873158 -6.87890625 35.32421875 C-6.85529526 34.3990596 -6.83168427 33.47390045 -6.80735779 32.52070618 C-6.73100288 29.576137 -6.64685775 26.6318497 -6.5625 23.6875 C-6.5092511 21.68686259 -6.4565109 19.68621156 -6.40429688 17.68554688 C-6.27542597 12.79018729 -6.13956966 7.89506576 -6 3 C-5.34 3 -4.68 3 -4 3 C-3.34 3.66 -2.68 4.32 -2 5 C-1.34 3.35 -0.68 1.7 0 0 Z M-5 46 C-4 48 -4 48 -4 48 Z " fill="#3B99C8" transform="translate(100,11)"/>
<path d="M0 0 C2.97551795 1.77603298 5.42755188 3.85510377 7 7 C7.62038733 10.14031112 7.70758188 12.86933198 7 16 C4.777451 19.08289054 2.31934361 21.15992908 -1 23 C-5.09047604 23.32723808 -6.73948964 22.15530425 -10.25 20.0625 C-14.13515564 16.6248492 -14.4448955 11.9289451 -15 7 C-13.68 7 -12.36 7 -11 7 C-10.67 5.02 -10.34 3.04 -10 1 C-6.34711807 -0.21762731 -3.84245864 -0.39075851 0 0 Z M-5 11 C-4.34 11.66 -3.68 12.32 -3 13 C-2.67 12.34 -2.34 11.68 -2 11 C-2.99 11 -3.98 11 -5 11 Z " fill="#1A2A3F" transform="translate(132,75)"/>
<path d="M0 0 C18.48 0 36.96 0 56 0 C56.495 1.98 56.495 1.98 57 4 C55 6 55 6 52.71617126 6.24723816 C51.76432449 6.24581314 50.81247772 6.24438812 49.83178711 6.24291992 C48.75404526 6.24599655 47.67630341 6.24907318 46.56590271 6.25224304 C45.39817825 6.24505753 44.2304538 6.23787201 43.02734375 6.23046875 C41.83395889 6.23001053 40.64057404 6.22955231 39.411026 6.2290802 C36.88492846 6.22605506 34.35883283 6.218161 31.83276367 6.20581055 C27.95029142 6.18756013 24.06805752 6.18530076 20.18554688 6.18554688 C17.73697709 6.1806317 15.28840893 6.17480338 12.83984375 6.16796875 C11.67009506 6.16685593 10.50034637 6.1657431 9.29515076 6.16459656 C7.68326622 6.15502678 7.68326622 6.15502678 6.03881836 6.14526367 C4.61224159 6.13954597 4.61224159 6.13954597 3.15684509 6.13371277 C1 6 1 6 0 5 C0 3.35 0 1.7 0 0 Z " fill="#194C70" transform="translate(34,71)"/>
<path d="M0 0 C17.66666667 0 35.33333333 0 53 0 C53.495 1.485 53.495 1.485 54 3 C53.34 3.99 52.68 4.98 52 6 C49.61743164 6.37231445 49.61743164 6.37231445 46.66015625 6.36328125 C45.59732422 6.36263672 44.53449219 6.36199219 43.43945312 6.36132812 C42.32505859 6.34521484 41.21066406 6.32910156 40.0625 6.3125 C38.39670898 6.31733398 38.39670898 6.31733398 36.69726562 6.32226562 C28.40048084 6.26698723 28.40048084 6.26698723 25 4 C24.01 4.66 23.02 5.32 22 6 C19.76342773 6.24291992 19.76342773 6.24291992 17.18359375 6.23046875 C16.25482422 6.22853516 15.32605469 6.22660156 14.36914062 6.22460938 C13.40169922 6.21236328 12.43425781 6.20011719 11.4375 6.1875 C10.46619141 6.18685547 9.49488281 6.18621094 8.49414062 6.18554688 C1.28086515 6.14043257 1.28086515 6.14043257 -1 5 C-0.67 3.35 -0.34 1.7 0 0 Z " fill="#1C4F72" transform="translate(33,13)"/>
<path d="M0 0 C1.17942421 -0.0049926 1.17942421 -0.0049926 2.38267517 -0.01008606 C4.04099952 -0.01513838 5.69933398 -0.01749491 7.35766602 -0.01733398 C9.89681612 -0.01952648 12.43553574 -0.03771616 14.97460938 -0.05664062 C16.5872381 -0.05957368 18.19986888 -0.06155906 19.8125 -0.0625 C20.57192398 -0.06968552 21.33134796 -0.07687103 22.11378479 -0.08427429 C25.90017582 -0.06781137 27.60999674 0.01473741 30.83984375 2.16796875 C30.46484375 4.10546875 30.46484375 4.10546875 29.83984375 6.16796875 C26.70379567 7.73599279 23.3531223 7.3309264 19.91015625 7.3359375 C19.12341522 7.3392659 18.33667419 7.3425943 17.52609253 7.34602356 C15.86001165 7.3510903 14.19392061 7.35343196 12.52783203 7.35327148 C9.98192539 7.35545411 7.43645472 7.37360147 4.890625 7.39257812 C3.2721369 7.39551289 1.65364674 7.39749713 0.03515625 7.3984375 C-1.10564896 7.40921577 -1.10564896 7.40921577 -2.26950073 7.42021179 C-6.05188872 7.40391322 -8.95293604 7.29260741 -12.16015625 5.16796875 C-12.16015625 3.84796875 -12.16015625 2.52796875 -12.16015625 1.16796875 C-8.18038364 -0.13949382 -4.13997393 0.00608273 0 0 Z " fill="#0E4B76" transform="translate(60.16015625,79.83203125)"/>
<path d="M0 0 C0.72391937 0.00666183 1.44783875 0.01332367 2.19369507 0.02018738 C3.01439484 0.02041397 3.8350946 0.02064056 4.68066406 0.02087402 C6.01041763 0.04409981 6.01041763 0.04409981 7.36703491 0.0677948 C8.27424286 0.07203964 9.18145081 0.07628448 10.1161499 0.08065796 C13.02038973 0.09748222 15.92394151 0.13514095 18.82797241 0.17326355 C20.79410824 0.18830556 22.76025492 0.2019948 24.72640991 0.21427917 C29.5521968 0.24739798 34.37746786 0.29920569 39.20297241 0.36076355 C39.86297241 1.68076355 40.52297241 3.00076355 41.20297241 4.36076355 C39.20297241 6.36076355 39.20297241 6.36076355 37.36798096 6.60127258 C36.62629669 6.59683136 35.88461243 6.59239014 35.12045288 6.58781433 C33.8593721 6.58758774 33.8593721 6.58758774 32.57281494 6.58735657 C31.66443878 6.577034 30.75606262 6.56671143 29.82015991 6.55607605 C28.89075592 6.55324615 27.96135193 6.55041626 27.00378418 6.54750061 C24.02838391 6.53628424 21.05328206 6.51117715 18.07797241 6.48576355 C16.06365384 6.47573563 14.04933055 6.46660945 12.03500366 6.4584198 C7.09087785 6.43634016 2.14697576 6.40180048 -2.79702759 6.36076355 C-3.12702759 5.37076355 -3.45702759 4.38076355 -3.79702759 3.36076355 C-1.79702759 0.36076355 -1.79702759 0.36076355 0 0 Z " fill="#115482" transform="translate(45.797027587890625,31.639236450195313)"/>
<path d="M0 0 C4.29 0 8.58 0 13 0 C13 0.33 13 0.66 13 1 C12.30132812 1.02578125 11.60265625 1.0515625 10.8828125 1.078125 C9.97273438 1.13484375 9.06265625 1.1915625 8.125 1.25 C7.22007813 1.29640625 6.31515625 1.3428125 5.3828125 1.390625 C2.91270083 1.76224277 2.91270083 1.76224277 1.71875 3.65625 C0.83280992 6.54518503 0.57159456 9.23555007 0.375 12.25 C0.30023438 13.32765625 0.22546875 14.4053125 0.1484375 15.515625 C0.09945312 16.33546875 0.05046875 17.1553125 0 18 C-2.89884776 14.50007882 -3.31147566 12.56830973 -3 8 C-3.66 8 -4.32 8 -5 8 C-5 23.18 -5 38.36 -5 54 C-2.03 54.66 0.94 55.32 4 56 C4 56.66 4 57.32 4 58 C4.66 58 5.32 58 6 58 C6 58.66 6 59.32 6 60 C1.71 59.34 -2.58 58.68 -7 58 C-7.95488694 52.25598024 -8.24089699 46.61351803 -8.38671875 40.796875 C-8.41224319 39.83726868 -8.43776764 38.87766235 -8.46406555 37.88897705 C-8.51582936 35.87200521 -8.56528354 33.8549729 -8.61254883 31.83789062 C-8.68760388 28.74572043 -8.77816389 25.65423756 -8.86914062 22.5625 C-8.91761922 20.59898162 -8.96517754 18.63544026 -9.01171875 16.671875 C-9.04077805 15.74687195 -9.06983734 14.8218689 -9.09977722 13.86883545 C-9.11672134 13.0107428 -9.13366547 12.15265015 -9.15112305 11.26855469 C-9.17031296 10.51467468 -9.18950287 9.76079468 -9.20927429 8.98406982 C-9 7 -9 7 -7 4 C-3.875 3.3125 -3.875 3.3125 -1 3 C-0.67 2.01 -0.34 1.02 0 0 Z " fill="#3CA8DC" transform="translate(99,6)"/>
<path d="M0 0 C0.83683319 0.02265427 1.67366638 0.04530853 2.53585815 0.06864929 C4.30285954 0.11857594 6.06972485 0.17353577 7.83642578 0.2331543 C10.55089288 0.32409163 13.26544037 0.39868581 15.98046875 0.47070312 C17.69534101 0.52117587 19.41018627 0.5725762 21.125 0.625 C21.94163116 0.6479866 22.75826233 0.67097321 23.59963989 0.69465637 C29.3134811 0.89551235 29.3134811 0.89551235 30.4296875 2.01171875 C30.47032582 3.6778899 30.4724085 5.3455997 30.4296875 7.01171875 C24.77020908 7.22845666 19.11052452 7.42537875 13.44970703 7.60375977 C11.52308614 7.66728724 9.59663749 7.73627892 7.67041016 7.81079102 C4.90554152 7.91680373 2.14065379 8.00330998 -0.625 8.0859375 C-1.4896286 8.12329514 -2.3542572 8.16065277 -3.24508667 8.19914246 C-5.67138672 8.26049805 -5.67138672 8.26049805 -9.5703125 8.01171875 C-11.5703125 5.01171875 -11.5703125 5.01171875 -11.5703125 2.01171875 C-7.66791465 -0.58987981 -4.50715351 -0.16118323 0 0 Z " fill="#194D6C" transform="translate(55.5703125,59.98828125)"/>
<path d="M0 0 C0.77166 -0.00095673 1.54332001 -0.00191345 2.33836365 -0.00289917 C3.96996136 -0.00357996 5.60156178 -0.0017327 7.2331543 0.00244141 C9.73948196 0.00779837 12.245631 0.00248931 14.75195312 -0.00390625 C16.33463581 -0.00324559 17.91731839 -0.00196469 19.5 0 C20.25414688 -0.00202423 21.00829376 -0.00404846 21.78529358 -0.00613403 C27.06863751 0.01785626 27.06863751 0.01785626 28.18359375 1.1328125 C28.22423207 2.79898365 28.22631475 4.46669345 28.18359375 6.1328125 C23.09326534 6.15749334 18.0029716 6.17566332 12.91259766 6.18774414 C11.18016961 6.19277932 9.44774583 6.19960782 7.71533203 6.20825195 C5.22817942 6.22035315 2.74108288 6.22604888 0.25390625 6.23046875 C-0.52322723 6.23563004 -1.30036072 6.24079132 -2.1010437 6.24610901 C-7.58866284 6.24668421 -7.58866284 6.24668421 -9.81640625 5.1328125 C-9.81640625 3.8128125 -9.81640625 2.4928125 -9.81640625 1.1328125 C-6.70690096 -0.42194014 -3.41193595 -0.00918274 0 0 Z " fill="#1B5177" transform="translate(57.81640625,2.8671875)"/>
<path d="M0 0 C11.22 0 22.44 0 34 0 C34.495 1.98 34.495 1.98 35 4 C33 6 33 6 29.8671875 6.24291992 C28.54976562 6.23881104 27.23234375 6.23470215 25.875 6.23046875 C25.1722998 6.23001053 24.46959961 6.22955231 23.74560547 6.2290802 C22.25942294 6.22605825 20.77324356 6.21817359 19.28710938 6.20581055 C17.00900075 6.18757206 14.73129896 6.18530075 12.453125 6.18554688 C1.29505259 6.14752629 1.29505259 6.14752629 -1 5 C-0.67 3.35 -0.34 1.7 0 0 Z " fill="#1C4967" transform="translate(31,42)"/>
<path d="M0 0 C8.91 0 17.82 0 27 0 C26.67 0.66 26.34 1.32 26 2 C23.05859375 2.6328125 23.05859375 2.6328125 19.4375 3.125 C18.23996094 3.29257812 17.04242187 3.46015625 15.80859375 3.6328125 C14.88175781 3.75398438 13.95492188 3.87515625 13 4 C20.54498233 4.02312851 28.08996101 4.04091769 35.63497066 4.05181217 C39.13808885 4.05703989 42.64118285 4.0641355 46.14428711 4.07543945 C50.16780841 4.08834206 54.19130414 4.09322912 58.21484375 4.09765625 C60.11012062 4.10539818 60.11012062 4.10539818 62.04368591 4.11329651 C63.78537804 4.11340981 63.78537804 4.11340981 65.56225586 4.11352539 C66.59039902 4.115746 67.61854218 4.11796661 68.67784119 4.12025452 C70.9613511 4.26184609 70.9613511 4.26184609 72 3 C71.01 2.01 71.01 2.01 70 1 C72.475 0.505 72.475 0.505 75 0 C75.6875 1.8125 75.6875 1.8125 76 4 C74.9539032 5.61543274 74.9539032 5.61543274 73 7 C69.90583801 7.36076355 69.90583801 7.36076355 66.05004883 7.34057617 C65.34735367 7.34101425 64.64465851 7.34145233 63.92066956 7.34190369 C61.59917364 7.33981447 59.27840091 7.31647819 56.95703125 7.29296875 C55.34706517 7.28737324 53.73709398 7.28310293 52.12712097 7.28010559 C47.89045093 7.26865318 43.6540896 7.23918279 39.4175415 7.20599365 C35.0941587 7.17530119 30.77072599 7.16160203 26.44726562 7.14648438 C17.9647021 7.1143133 9.48238946 7.06311238 1 7 C0.67 4.69 0.34 2.38 0 0 Z " fill="#10496A" transform="translate(11,22)"/>
<path d="M0 0 C0.33 0 0.66 0 1 0 C1.16773186 4.50213622 1.32827877 9.00444973 1.48217773 13.50708008 C1.53554122 15.03872569 1.59086614 16.57030427 1.64819336 18.10180664 C1.73026252 20.30340117 1.80527067 22.50514051 1.87890625 24.70703125 C1.90594131 25.39150833 1.93297638 26.07598541 1.96083069 26.78120422 C2.05703182 29.8469855 1.98026873 32.05919382 1 35 C-3.60316684 35.73591164 -8.00986987 36.12275273 -12.66967773 36.11352539 C-13.95047714 36.11344986 -15.23127655 36.11337433 -16.55088806 36.11329651 C-17.92845703 36.10819145 -19.30602559 36.10297548 -20.68359375 36.09765625 C-22.1084844 36.0957886 -23.53337569 36.09436634 -24.95826721 36.09336853 C-28.6884034 36.08957066 -32.41849996 36.07976402 -36.14862061 36.06866455 C-39.96300725 36.05839141 -43.77740036 36.05385832 -47.59179688 36.04882812 C-55.06121588 36.03813902 -62.53060236 36.0210958 -70 36 C-70 35.34 -70 34.68 -70 34 C-62.41 34 -54.82 34 -47 34 C-47 33.34 -47 32.68 -47 32 C-46.4227417 32.0714624 -45.8454834 32.1429248 -45.25073242 32.21655273 C-35.94079471 33.22419794 -26.66226532 33.1113455 -17.3125 33.0625 C-15.62825654 33.05747338 -13.94401163 33.05291253 -12.25976562 33.04882812 C-8.17311078 33.03877733 -4.08666247 33.01918621 0 33 C0 22.11 0 11.22 0 0 Z " fill="#328DB9" transform="translate(175,30)"/>
<path d="M0 0 C0.33 1.98 0.66 3.96 1 6 C0.21625 6.061875 -0.5675 6.12375 -1.375 6.1875 C-2.24125 6.455625 -3.1075 6.72375 -4 7 C-5.15521502 9.47130918 -5.15521502 9.47130918 -6 12 C-6.99 12.33 -7.98 12.66 -9 13 C-9 13.66 -9 14.32 -9 15 C-10.32 15 -11.64 15 -13 15 C-13 14.34 -13 13.68 -13 13 C-14.32 13.33 -15.64 13.66 -17 14 C-16.814375 13.46375 -16.62875 12.9275 -16.4375 12.375 C-15.87727445 9.33377558 -16.26921671 6.98956802 -17 4 C-17.66 3.67 -18.32 3.34 -19 3 C-19.33 3.99 -19.66 4.98 -20 6 C-22 3 -22 3 -22 1 C-20.89591797 1.01740234 -20.89591797 1.01740234 -19.76953125 1.03515625 C-18.79371094 1.04417969 -17.81789063 1.05320312 -16.8125 1.0625 C-15.36810547 1.07990234 -15.36810547 1.07990234 -13.89453125 1.09765625 C-9.16607263 0.93812661 -4.7820774 -0.1112111 0 0 Z " fill="#065B9E" transform="translate(119,69)"/>
<path d="M0 0 C4.29 0 8.58 0 13 0 C13 0.99 13 1.98 13 3 C15.475 3.495 15.475 3.495 18 4 C18.66 7.63 19.32 11.26 20 15 C32.21 15 44.42 15 57 15 C57 15.33 57 15.66 57 16 C43.8 16 30.6 16 17 16 C15.515 11.545 15.515 11.545 14 7 C11.00075613 4.25069312 9.3832831 4.02598529 5.3125 3.75 C2.12358155 3.78044554 2.12358155 3.78044554 0 5 C-0.72693904 6.97888961 -1.39816251 8.97954558 -2 11 C-3.32 11 -4.64 11 -6 11 C-6 12.98 -6 14.96 -6 17 C-7.32 16.67 -8.64 16.34 -10 16 C-10.33 14.68 -10.66 13.36 -11 12 C-10.01 11.67 -9.02 11.34 -8 11 C-8 10.34 -8 9.68 -8 9 C-7.34 9 -6.68 9 -6 9 C-5.71125 8.360625 -5.4225 7.72125 -5.125 7.0625 C-4 5 -4 5 -2 4 C-1.34 2.68 -0.68 1.36 0 0 Z " fill="#104669" transform="translate(123,71)"/>
<path d="M0 0 C1.52732857 0.23141342 3.04851011 0.50571127 4.5625 0.8125 C5.34753906 0.96332031 6.13257813 1.11414063 6.94140625 1.26953125 C9 2 9 2 11 5 C10.01 5 9.02 5 8 5 C7.67 5.66 7.34 6.32 7 7 C7 6.34 7 5.68 7 5 C6.01 5.33 5.02 5.66 4 6 C3.34 5.67 2.68 5.34 2 5 C2 6.65 2 8.3 2 10 C2.66 10 3.32 10 4 10 C4 11.32 4 12.64 4 14 C2.68 13.67 1.36 13.34 0 13 C0 12.01 0 11.02 0 10 C-0.31088368 8.32900023 -0.64080332 6.66128463 -1 5 C-1.66 5 -2.32 5 -3 5 C-4.96095061 8.29439703 -6.01202745 10.3745726 -5.9375 14.25 C-5.26712776 17.09454045 -5.26712776 17.09454045 -3.0625 18.375 C-1.04017811 19.09666913 -1.04017811 19.09666913 1 19 C1 19.66 1 20.32 1 21 C2.29217171 20.52219697 3.58372046 20.04270894 4.875 19.5625 C5.59429687 19.29566406 6.31359375 19.02882813 7.0546875 18.75390625 C9.03648845 18.02083146 9.03648845 18.02083146 11 17 C10.04193005 19.39517488 9.41334387 20.73851507 7.203125 22.13671875 C3.41875306 23.61960208 -0.14621365 23.10920788 -4 22 C-6.375 19.6875 -6.375 19.6875 -8 17 C-10.27073145 13.6022626 -10.27073145 13.6022626 -14 12 C-13.360625 11.401875 -12.72125 10.80375 -12.0625 10.1875 C-9.79689611 8.09189663 -9.79689611 8.09189663 -9 5 C-8.34 5 -7.68 5 -7 5 C-6.67 4.34 -6.34 3.68 -6 3 C-3.46153846 0 -3.46153846 0 0 0 Z " fill="#0D2438" transform="translate(209,74)"/>
<path d="M0 0 C0.99 0 1.98 0 3 0 C4.14315747 2.28631494 4.12112732 3.54347406 4.11352539 6.08251953 C4.11341209 7.34360031 4.11341209 7.34360031 4.11329651 8.63015747 C4.10555458 9.99272171 4.10555458 9.99272171 4.09765625 11.3828125 C4.0962413 12.31221649 4.09482635 13.24162048 4.09336853 14.19918823 C4.08776053 17.17449124 4.07520668 20.14971964 4.0625 23.125 C4.05748603 25.13932183 4.05292295 27.15364484 4.04882812 29.16796875 C4.0377885 34.11200802 4.02051849 39.05599135 4 44 C3.34 44 2.68 44 2 44 C1.855625 42.88625 1.71125 41.7725 1.5625 40.625 C1.21627965 37.17857953 1.21627965 37.17857953 0 35 C-0.08667255 32.37372867 -0.11560135 29.77437517 -0.09765625 27.1484375 C-0.0962413 26.37440582 -0.09482635 25.60037415 -0.09336853 24.80288696 C-0.08776403 22.32688558 -0.07521083 19.85097412 -0.0625 17.375 C-0.05748558 15.69791797 -0.05292257 14.02083453 -0.04882812 12.34375 C-0.03779315 8.22913194 -0.02052554 4.11458122 0 0 Z " fill="#1C8CBC" transform="translate(168,14)"/>
<path d="M0 0 C2.31 0 4.62 0 7 0 C7 1.65 7 3.3 7 5 C8.98 5 10.96 5 13 5 C13 4.34 13 3.68 13 3 C16.00313748 1.49843126 18.79067522 1.90718796 22.125 1.9375 C23.40632813 1.94652344 24.68765625 1.95554688 26.0078125 1.96484375 C26.99523437 1.97644531 27.98265625 1.98804688 29 2 C29 2.66 29 3.32 29 4 C24.05 4 19.1 4 14 4 C14 4.99 14 5.98 14 7 C10.17010894 8.80230168 7.21878192 9.19622241 3 9 C3.268125 9.556875 3.53625 10.11375 3.8125 10.6875 C3.874375 11.450625 3.93625 12.21375 4 13 C1.625 15.75 1.625 15.75 -1 18 C-1.33 18 -1.66 18 -2 18 C-3.70159453 5.33029613 -3.70159453 5.33029613 0 0 Z M-5 18 C-4.01 18.33 -3.02 18.66 -2 19 C-2.99 19.33 -3.98 19.66 -5 20 C-5 19.34 -5 18.68 -5 18 Z " fill="#0D568C" transform="translate(187,51)"/>
<path d="M0 0 C0.93457031 0.0515625 1.86914062 0.103125 2.83203125 0.15625 C3.80011719 0.22070312 4.76820312 0.28515625 5.765625 0.3515625 C6.74917969 0.40828125 7.73273437 0.465 8.74609375 0.5234375 C11.170036 0.66463802 13.59289959 0.81602045 16.015625 0.9765625 C17.078125 2.8515625 17.078125 2.8515625 18.015625 4.9765625 C17.685625 5.6365625 17.355625 6.2965625 17.015625 6.9765625 C13.43365096 7.23184298 9.85035121 7.45121938 6.265625 7.6640625 C4.74195313 7.77331055 4.74195313 7.77331055 3.1875 7.88476562 C2.2078125 7.93955078 1.228125 7.99433594 0.21875 8.05078125 C-1.13234863 8.13718872 -1.13234863 8.13718872 -2.51074219 8.2253418 C-5.54144182 7.92053693 -6.84854058 7.12267134 -8.984375 4.9765625 C-8.984375 3.9865625 -8.984375 2.9965625 -8.984375 1.9765625 C-5.80840661 0.09284036 -3.66468419 -0.22345635 0 0 Z " fill="#164E70" transform="translate(24.984375,60.0234375)"/>
<path d="M0 0 C17.16 0 34.32 0 52 0 C52 0.99 52 1.98 52 3 C35.17 3 18.34 3 1 3 C0.67 2.01 0.34 1.02 0 0 Z " fill="#1B5380" transform="translate(36,73)"/>
<path d="M0 0 C5.94 0 11.88 0 18 0 C18.33 1.65 18.66 3.3 19 5 C13.14555306 7.08158113 7.19656006 7.91764345 1 7 C-0.828125 5.48046875 -0.828125 5.48046875 -2 4 C-1.34 2.68 -0.68 1.36 0 0 Z " fill="#105581" transform="translate(22,32)"/>
<path d="M0 0 C2.48927108 2.48927108 2.26596375 3.2876435 2.31884766 6.72509766 C2.33871735 7.70596344 2.35858704 8.68682922 2.37905884 9.69741821 C2.39061005 10.75891083 2.40216125 11.82040344 2.4140625 12.9140625 C2.43342865 13.99883881 2.4527948 15.08361511 2.4727478 16.20126343 C2.53266426 19.67576159 2.57897739 23.15029267 2.625 26.625 C2.66316865 28.97657718 2.70221971 31.32814021 2.7421875 33.6796875 C2.83837559 39.4529997 2.92338753 45.22639666 3 51 C4.65 51.33 6.3 51.66 8 52 C5.30234372 53.34882814 3.84835666 52.80338265 1 52 C-0.23080509 49.53838983 -0.12043977 47.93503007 -0.11352539 45.18310547 C-0.11344986 44.18221893 -0.11337433 43.1813324 -0.11329651 42.15011597 C-0.10813522 41.06674957 -0.10297394 39.98338318 -0.09765625 38.8671875 C-0.0962413 37.76021515 -0.09482635 36.6532428 -0.09336853 35.51272583 C-0.08775772 31.96679007 -0.07520337 28.42091677 -0.0625 24.875 C-0.05748639 22.47526133 -0.05292325 20.07552167 -0.04882812 17.67578125 C-0.03778478 11.78383275 -0.0210361 5.89192084 0 0 Z " fill="#408DB3" transform="translate(89,13)"/>
<path d="M0 0 C7.26 0 14.52 0 22 0 C22 1.65 22 3.3 22 5 C14.74 5 7.48 5 0 5 C0 3.35 0 1.7 0 0 Z " fill="#7B8484" transform="translate(139,28)"/>
<path d="M0 0 C7.26 0 14.52 0 22 0 C22 1.65 22 3.3 22 5 C14.74 5 7.48 5 0 5 C0 3.35 0 1.7 0 0 Z " fill="#7B7E84" transform="translate(139,20)"/>
<path d="M0 0 C6.06888051 -0.09878601 12.13729439 -0.17142949 18.20678711 -0.21972656 C20.27197418 -0.23985731 22.33710416 -0.26716445 24.40209961 -0.30175781 C27.36847001 -0.35021162 30.33408772 -0.37295385 33.30078125 -0.390625 C34.2258699 -0.41127014 35.15095856 -0.43191528 36.1040802 -0.45318604 C37.39507881 -0.45363922 37.39507881 -0.45363922 38.7121582 -0.45410156 C39.46938675 -0.46298401 40.2266153 -0.47186646 41.00679016 -0.48101807 C43 0 43 0 46 4 C38.41 4 30.82 4 23 4 C23 3.67 23 3.34 23 3 C18.0399662 2.05711817 13.15485426 1.69751789 8.125 1.4375 C7.34125 1.39431641 6.5575 1.35113281 5.75 1.30664062 C3.83349351 1.20146649 1.91676667 1.10032075 0 1 C0 0.67 0 0.34 0 0 Z " fill="#1A547B" transform="translate(39,22)"/>
<path d="M0 0 C0.83265381 0.00523682 1.66530762 0.01047363 2.52319336 0.01586914 C3.42231445 0.0190918 4.32143555 0.02231445 5.24780273 0.02563477 C6.66609375 0.03820313 6.66609375 0.03820313 8.11303711 0.05102539 C9.06243164 0.05553711 10.01182617 0.06004883 10.98999023 0.06469727 C13.34356776 0.07652429 15.69702188 0.09300514 18.05053711 0.11352539 C18.38053711 1.76352539 18.71053711 3.41352539 19.05053711 5.11352539 C8.65553711 5.60852539 8.65553711 5.60852539 -1.94946289 6.11352539 C-2.27946289 4.46352539 -2.60946289 2.81352539 -2.94946289 1.11352539 C-1.94946289 0.11352539 -1.94946289 0.11352539 0 0 Z " fill="#667172" transform="translate(141.949462890625,35.886474609375)"/>
<path d="M0 0 C0.66 0 1.32 0 2 0 C2.66 2.64 3.32 5.28 4 8 C19.84 8.33 35.68 8.66 52 9 C52 9.33 52 9.66 52 10 C41.11176956 12.26679524 30.73419969 12.05673713 19.6875 11.625 C17.96422989 11.56660056 16.24092213 11.50930147 14.51757812 11.453125 C10.3445103 11.31473918 6.17223211 11.16156344 2 11 C0.80712589 7.12315913 0 4.08378077 0 0 Z " fill="#105385" transform="translate(141,75)"/>
<path d="M0 0 C6.93 0 13.86 0 21 0 C21.33 1.65 21.66 3.3 22 5 C14.74 5 7.48 5 0 5 C0 3.35 0 1.7 0 0 Z " fill="#4F5C5C" transform="translate(105,36)"/>
<path d="M0 0 C6.93 0 13.86 0 21 0 C21.33 1.32 21.66 2.64 22 4 C21 5 21 5 18.95874023 5.11352539 C18.08419189 5.10828857 17.20964355 5.10305176 16.30859375 5.09765625 C15.36435547 5.09443359 14.42011719 5.09121094 13.44726562 5.08789062 C12.45404297 5.07951172 11.46082031 5.07113281 10.4375 5.0625 C9.44041016 5.05798828 8.44332031 5.05347656 7.41601562 5.04882812 C4.94395151 5.03700007 2.47200482 5.02051849 0 5 C0 3.35 0 1.7 0 0 Z " fill="#566B69" transform="translate(105,28)"/>
<path d="M0 0 C7.26 0 14.52 0 22 0 C21.67 1.65 21.34 3.3 21 5 C14.07 5 7.14 5 0 5 C0 3.35 0 1.7 0 0 Z " fill="#797C7E" transform="translate(105,20)"/>
<path d="M0 0 C0.72391937 0.00666183 1.44783875 0.01332367 2.19369507 0.02018738 C3.01439484 0.02041397 3.8350946 0.02064056 4.68066406 0.02087402 C6.01041763 0.04409981 6.01041763 0.04409981 7.36703491 0.0677948 C8.27424286 0.07203964 9.18145081 0.07628448 10.1161499 0.08065796 C13.02038973 0.09748222 15.92394151 0.13514095 18.82797241 0.17326355 C20.79410824 0.18830556 22.76025492 0.2019948 24.72640991 0.21427917 C29.5521968 0.24739798 34.37746786 0.29920569 39.20297241 0.36076355 C39.86297241 1.68076355 40.52297241 3.00076355 41.20297241 4.36076355 C39.20297241 6.36076355 39.20297241 6.36076355 37.36798096 6.60127258 C36.62629669 6.59683136 35.88461243 6.59239014 35.12045288 6.58781433 C33.8593721 6.58758774 33.8593721 6.58758774 32.57281494 6.58735657 C31.66443878 6.577034 30.75606262 6.56671143 29.82015991 6.55607605 C28.89075592 6.55324615 27.96135193 6.55041626 27.00378418 6.54750061 C24.02838391 6.53628424 21.05328206 6.51117715 18.07797241 6.48576355 C16.06365384 6.47573563 14.04933055 6.46660945 12.03500366 6.4584198 C7.09087785 6.43634016 2.14697576 6.40180048 -2.79702759 6.36076355 C-3.12702759 5.37076355 -3.45702759 4.38076355 -3.79702759 3.36076355 C-1.79702759 0.36076355 -1.79702759 0.36076355 0 0 Z M-0.79702759 1.36076355 C-0.79702759 2.68076355 -0.79702759 4.00076355 -0.79702759 5.36076355 C4.41740574 5.3854729 9.63180502 5.40362799 14.84628296 5.41569519 C16.62037754 5.42072555 18.39446797 5.42755054 20.16854858 5.436203 C22.71779402 5.44832529 25.26698467 5.45400481 27.81625366 5.4584198 C28.61009964 5.46358109 29.40394562 5.46874237 30.22184753 5.47406006 C33.47953527 5.47439232 36.08978763 5.39849181 39.20297241 4.36076355 C39.20297241 3.70076355 39.20297241 3.04076355 39.20297241 2.36076355 C34.8173117 1.27281853 30.54714476 1.23179041 26.05844116 1.2631073 C25.28865433 1.26452225 24.51886749 1.26593719 23.72575378 1.26739502 C21.28061953 1.27296749 18.83557873 1.28551484 16.39047241 1.29826355 C14.72706228 1.30328211 13.06365071 1.3078444 11.40023804 1.31193542 C7.33444713 1.32292789 3.26872559 1.34017345 -0.79702759 1.36076355 Z " fill="#1D4866" transform="translate(45.797027587890625,31.639236450195313)"/>
<path d="M0 0 C11.22 0 22.44 0 34 0 C33.67 0.99 33.34 1.98 33 3 C21.78 3 10.56 3 -1 3 C-0.67 2.01 -0.34 1.02 0 0 Z " fill="#185483" transform="translate(49,63)"/>
<path d="M0 0 C1.48831242 0.00667405 2.97660807 0.01863442 4.46484375 0.03515625 C5.22345703 0.03966797 5.98207031 0.04417969 6.76367188 0.04882812 C8.64326246 0.06064945 10.52281274 0.07858547 12.40234375 0.09765625 C12.78453142 1.75380282 13.11629477 3.42222649 13.40234375 5.09765625 C12.40234375 6.09765625 12.40234375 6.09765625 8.8046875 6.1953125 C7.31637508 6.18863845 5.82807943 6.17667808 4.33984375 6.16015625 C3.58123047 6.15564453 2.82261719 6.15113281 2.04101562 6.14648438 C0.16142504 6.13466305 -1.71812524 6.11672703 -3.59765625 6.09765625 C-3.97984392 4.44150968 -4.31160727 2.77308601 -4.59765625 1.09765625 C-3.59765625 0.09765625 -3.59765625 0.09765625 0 0 Z " fill="#194C66" transform="translate(73.59765625,41.90234375)"/>
<path d="M0 0 C1.32 0 2.64 0 4 0 C4 1.32 4 2.64 4 4 C3.34 4 2.68 4 2 4 C2 17.86 2 31.72 2 46 C1.34 46 0.68 46 0 46 C-0.16802786 39.77052061 -0.32795472 33.54087151 -0.48217773 27.31103516 C-0.53563685 25.19054423 -0.59096917 23.07009969 -0.64819336 20.94970703 C-0.72999523 17.90667728 -0.80511898 14.8635458 -0.87890625 11.8203125 C-0.90594131 10.86818878 -0.93297638 9.91606506 -0.96083069 8.93508911 C-0.98092697 8.05432709 -1.00102325 7.17356506 -1.02172852 6.26611328 C-1.04171402 5.48889923 -1.06169952 4.71168518 -1.08229065 3.91091919 C-1 2 -1 2 0 0 Z " fill="#4DA6D8" transform="translate(132,8)"/>
<path d="M0 0 C3.93748458 -0.02898816 7.87494179 -0.04679464 11.8125 -0.0625 C12.93205078 -0.07087891 14.05160156 -0.07925781 15.20507812 -0.08789062 C16.81479492 -0.09272461 16.81479492 -0.09272461 18.45703125 -0.09765625 C19.9416687 -0.10551147 19.9416687 -0.10551147 21.45629883 -0.11352539 C24 0 24 0 27 1 C27 1.66 27 2.32 27 3 C26.28972656 2.98839844 25.57945313 2.97679687 24.84765625 2.96484375 C23.92855469 2.95582031 23.00945313 2.94679687 22.0625 2.9375 C20.68771484 2.92009766 20.68771484 2.92009766 19.28515625 2.90234375 C17.03406673 2.74050951 17.03406673 2.74050951 16 4 C14.65732587 4.08631874 13.31025678 4.10706473 11.96484375 4.09765625 C11.15595703 4.09443359 10.34707031 4.09121094 9.51367188 4.08789062 C8.66353516 4.07951172 7.81339844 4.07113281 6.9375 4.0625 C6.08349609 4.05798828 5.22949219 4.05347656 4.34960938 4.04882812 C2.23304337 4.03700373 0.11651315 4.01906769 -2 4 C-1.34 2.68 -0.68 1.36 0 0 Z " fill="#0C5183" transform="translate(36,43)"/>
<path d="M0 0 C0.66 0 1.32 0 2 0 C2 15.66666667 2 31.33333333 2 47 C1.01 46.67 0.02 46.34 -1 46 C-0.67 30.82 -0.34 15.64 0 0 Z " fill="#299AC6" transform="translate(94,14)"/>
<path d="M0 0 C1.25039063 0.00322266 2.50078125 0.00644531 3.7890625 0.00976562 C5.74199219 0.02233398 5.74199219 0.02233398 7.734375 0.03515625 C9.71050781 0.04192383 9.71050781 0.04192383 11.7265625 0.04882812 C14.97921241 0.06061309 18.23177084 0.07706614 21.484375 0.09765625 C21.484375 0.75765625 21.484375 1.41765625 21.484375 2.09765625 C16.534375 2.09765625 11.584375 2.09765625 6.484375 2.09765625 C6.154375 2.75765625 5.824375 3.41765625 5.484375 4.09765625 C2.184375 3.76765625 -1.115625 3.43765625 -4.515625 3.09765625 C-5.505625 4.58265625 -5.505625 4.58265625 -6.515625 6.09765625 C-7.835625 5.76765625 -9.155625 5.43765625 -10.515625 5.09765625 C-10.515625 3.77765625 -10.515625 2.45765625 -10.515625 1.09765625 C-6.97374222 -0.00063144 -3.6946488 -0.01679386 0 0 Z " fill="#124A6B" transform="translate(58.515625,79.90234375)"/>
<path d="M0 0 C0.99 0.33 1.98 0.66 3 1 C3 1.99 3 2.98 3 4 C4.65 3.67 6.3 3.34 8 3 C8 3.66 8 4.32 8 5 C7.34 5 6.68 5 6 5 C6 7.31 6 9.62 6 12 C8.53260212 12.77926219 10.44078677 12.99118426 13.125 12.9375 C16 13 16 13 18 15 C15.72975032 15.08097324 13.45867925 15.13917704 11.1875 15.1875 C9.29064453 15.23970703 9.29064453 15.23970703 7.35546875 15.29296875 C4 15 4 15 2.09375 13.875 C0.53299585 11.19942145 0.4778604 8.8882035 0.3125 5.8125 C0.21388672 4.18248047 0.21388672 4.18248047 0.11328125 2.51953125 C0.07589844 1.68808594 0.03851563 0.85664062 0 0 Z " fill="#114B6F" transform="translate(94,72)"/>
<path d="M0 0 C1.258125 -0.04125 2.51625 -0.0825 3.8125 -0.125 C4.52019531 -0.14820312 5.22789063 -0.17140625 5.95703125 -0.1953125 C8 0 8 0 11 2 C10.67 3.32 10.34 4.64 10 6 C3.07 5.67 -3.86 5.34 -11 5 C-11 4.34 -11 3.68 -11 3 C-5.555 2.505 -5.555 2.505 0 2 C0 1.34 0 0.68 0 0 Z " fill="#175589" transform="translate(80,80)"/>
<path d="M0 0 C1.98 0 3.96 0 6 0 C5.01 0.66 4.02 1.32 3 2 C3 2.66 3 3.32 3 4 C19.83 4.33 36.66 4.66 54 5 C54 3.35 54 1.7 54 0 C54.66 0 55.32 0 56 0 C56.625 1.875 56.625 1.875 57 4 C55 6 55 6 52.71617126 6.24723816 C51.76432449 6.24581314 50.81247772 6.24438812 49.83178711 6.24291992 C48.75404526 6.24599655 47.67630341 6.24907318 46.56590271 6.25224304 C45.39817825 6.24505753 44.2304538 6.23787201 43.02734375 6.23046875 C41.83395889 6.23001053 40.64057404 6.22955231 39.411026 6.2290802 C36.88492846 6.22605506 34.35883283 6.218161 31.83276367 6.20581055 C27.95029142 6.18756013 24.06805752 6.18530076 20.18554688 6.18554688 C17.73697709 6.1806317 15.28840893 6.17480338 12.83984375 6.16796875 C11.67009506 6.16685593 10.50034637 6.1657431 9.29515076 6.16459656 C7.68326622 6.15502678 7.68326622 6.15502678 6.03881836 6.14526367 C4.61224159 6.13954597 4.61224159 6.13954597 3.15684509 6.13371277 C1 6 1 6 0 5 C-0.04063832 3.33382885 -0.042721 1.66611905 0 0 Z " fill="#1E4B69" transform="translate(34,71)"/>
<path d="M0 0 C3.2578125 -0.29296875 3.2578125 -0.29296875 7.125 -0.1875 C9.04699219 -0.14689453 9.04699219 -0.14689453 11.0078125 -0.10546875 C11.99523438 -0.07066406 12.98265625 -0.03585938 14 0 C14 0.33 14 0.66 14 1 C12.95199219 1.07347656 12.95199219 1.07347656 11.8828125 1.1484375 C10.97273437 1.22320312 10.06265625 1.29796875 9.125 1.375 C8.22007813 1.44460937 7.31515625 1.51421875 6.3828125 1.5859375 C3.82058097 1.79568132 3.82058097 1.79568132 2 4 C7.94 4 13.88 4 20 4 C20 4.99 20 5.98 20 7 C16.89614789 7.11613204 13.79285338 7.18722029 10.6875 7.25 C9.36588867 7.30027344 9.36588867 7.30027344 8.01757812 7.3515625 C1.47123501 7.45112665 1.47123501 7.45112665 -1.10546875 4.984375 C-1.40066406 4.32953125 -1.69585937 3.6746875 -2 3 C-1.34 2.01 -0.68 1.02 0 0 Z " fill="#0F4D7C" transform="translate(2,51)"/>
<path d="M0 0 C0.66 1.32 1.32 2.64 2 4 C4.45275141 5.2263757 6.0505781 5.11415314 8.7890625 5.09765625 C10.20058594 5.09282227 10.20058594 5.09282227 11.640625 5.08789062 C13.11789063 5.07532227 13.11789063 5.07532227 14.625 5.0625 C16.11386719 5.05573242 16.11386719 5.05573242 17.6328125 5.04882812 C20.0886016 5.03702145 22.54427104 5.020554 25 5 C25 5.99 25 6.98 25 8 C18.07 8 11.14 8 4 8 C3.67 8.66 3.34 9.32 3 10 C2.01 10 1.02 10 0 10 C0 6.7 0 3.4 0 0 Z " fill="#23A2D6" transform="translate(96,52)"/>
<path d="M0 0 C1.05960938 -0.00257812 2.11921875 -0.00515625 3.2109375 -0.0078125 C4.86996094 0.00378906 4.86996094 0.00378906 6.5625 0.015625 C7.66851562 0.00789063 8.77453125 0.00015625 9.9140625 -0.0078125 C11.50347656 -0.00394531 11.50347656 -0.00394531 13.125 0 C14.09566406 0.00225586 15.06632812 0.00451172 16.06640625 0.00683594 C18.5625 0.265625 18.5625 0.265625 21.5625 2.265625 C19.09299121 3.50037939 17.41940905 3.39129875 14.66015625 3.40625 C13.68755859 3.42558594 12.71496094 3.44492187 11.71289062 3.46484375 C9.65840006 3.49863044 7.60359483 3.51692202 5.54882812 3.51953125 C2.798059 3.58871009 0.25342073 3.68648579 -2.4375 4.265625 C-4.73438248 6.60698905 -4.73438248 6.60698905 -5.4375 9.265625 C-6.0975 8.935625 -6.7575 8.605625 -7.4375 8.265625 C-8.0625 5.203125 -8.0625 5.203125 -8.4375 2.265625 C-5.0803713 0.0275392 -3.92612636 0.00912446 0 0 Z " fill="#185689" transform="translate(192.4375,27.734375)"/>
<path d="M0 0 C3 3.75 3 3.75 3 6 C3.66 6 4.32 6 5 6 C6.4783226 8.95664519 6.06032783 11.74229737 6 15 C5.01 15 4.02 15 3 15 C3.185625 15.78375 3.37125 16.5675 3.5625 17.375 C4 20 4 20 3 22 C0.4375 22.625 0.4375 22.625 -2 23 C-2 24.65 -2 26.3 -2 28 C-2.66 28 -3.32 28 -4 28 C-4 27.34 -4 26.68 -4 26 C-4.66 26 -5.32 26 -6 26 C-6 25.34 -6 24.68 -6 24 C-3.09451118 21.95830515 -1.59857954 21 2 21 C2 16.05 2 11.1 2 6 C1.34 6 0.68 6 0 6 C-0.38218767 4.34385343 -0.71395102 2.67542976 -1 1 C-0.67 0.67 -0.34 0.34 0 0 Z " fill="#0F5789" transform="translate(230,50)"/>
<path d="M0 0 C0.77166 -0.00095673 1.54332001 -0.00191345 2.33836365 -0.00289917 C3.96996136 -0.00357996 5.60156178 -0.0017327 7.2331543 0.00244141 C9.73948196 0.00779837 12.245631 0.00248931 14.75195312 -0.00390625 C16.33463581 -0.00324559 17.91731839 -0.00196469 19.5 0 C20.25414688 -0.00202423 21.00829376 -0.00404846 21.78529358 -0.00613403 C27.06863751 0.01785626 27.06863751 0.01785626 28.18359375 1.1328125 C28.22423207 2.79898365 28.22631475 4.46669345 28.18359375 6.1328125 C26.86359375 5.8028125 25.54359375 5.4728125 24.18359375 5.1328125 C24.84359375 5.1328125 25.50359375 5.1328125 26.18359375 5.1328125 C26.18359375 3.8128125 26.18359375 2.4928125 26.18359375 1.1328125 C9.84859375 1.6278125 9.84859375 1.6278125 -6.81640625 2.1328125 C-6.81640625 2.7928125 -6.81640625 3.4528125 -6.81640625 4.1328125 C-4.17640625 4.4628125 -1.53640625 4.7928125 1.18359375 5.1328125 C1.18359375 5.4628125 1.18359375 5.7928125 1.18359375 6.1328125 C-0.27463837 6.1598168 -1.733013 6.17921037 -3.19140625 6.1953125 C-4.00351562 6.20691406 -4.815625 6.21851563 -5.65234375 6.23046875 C-7.81640625 6.1328125 -7.81640625 6.1328125 -9.81640625 5.1328125 C-9.81640625 3.8128125 -9.81640625 2.4928125 -9.81640625 1.1328125 C-6.70690096 -0.42194014 -3.41193595 -0.00918274 0 0 Z " fill="#224D67" transform="translate(57.81640625,2.8671875)"/>
<path d="M0 0 C0.33 0 0.66 0 1 0 C1.33 2.31 1.66 4.62 2 7 C3.32 7.33 4.64 7.66 6 8 C2.70265354 9.09911549 0.27041255 9.1139456 -3.19921875 9.09765625 C-4.40771484 9.09443359 -5.61621094 9.09121094 -6.86132812 9.08789062 C-8.7552832 9.07532227 -8.7552832 9.07532227 -10.6875 9.0625 C-12.59885742 9.05573242 -12.59885742 9.05573242 -14.54882812 9.04882812 C-17.69926564 9.03702873 -20.84960949 9.02056597 -24 9 C-23.67 8.01 -23.34 7.02 -23 6 C-20.2915983 5.97285566 -17.58347279 5.95309154 -14.875 5.9375 C-13.73417969 5.92493164 -13.73417969 5.92493164 -12.5703125 5.91210938 C-8.2610356 5.89353491 -4.24483526 6.13882735 0 7 C0 4.69 0 2.38 0 0 Z " fill="#239AD0" transform="translate(168,51)"/>
<path d="M0 0 C5.445 0.495 5.445 0.495 11 1 C11 1.66 11 2.32 11 3 C4.04785719 4.31191997 -2.88444903 4.11058058 -9.9375 4.0625 C-11.19369141 4.05798828 -12.44988281 4.05347656 -13.74414062 4.04882812 C-16.82947663 4.03709681 -19.91471316 4.020681 -23 4 C-23 3.34 -23 2.68 -23 2 C-15.41 2 -7.82 2 0 2 C0 1.34 0 0.68 0 0 Z " fill="#2897C8" transform="translate(128,62)"/>
<path d="M0 0 C8.58 0 17.16 0 26 0 C26.33 0.99 26.66 1.98 27 3 C26.01 4.485 26.01 4.485 25 6 C22.61743164 6.38818359 22.61743164 6.38818359 19.66015625 6.3984375 C18.59732422 6.40230469 17.53449219 6.40617187 16.43945312 6.41015625 C15.32505859 6.39855469 14.21066406 6.38695312 13.0625 6.375 C11.95197266 6.38660156 10.84144531 6.39820313 9.69726562 6.41015625 C8.10108398 6.40435547 8.10108398 6.40435547 6.47265625 6.3984375 C5.49562744 6.39505371 4.51859863 6.39166992 3.51196289 6.38818359 C0.64368428 5.94493712 -0.23716033 5.24564143 -2 3 C-1.15743652 3.24447876 -1.15743652 3.24447876 -0.29785156 3.49389648 C2.13553181 4.02985098 4.27622228 4.11361396 6.765625 4.09765625 C7.65507813 4.09443359 8.54453125 4.09121094 9.4609375 4.08789062 C10.84152344 4.07532227 10.84152344 4.07532227 12.25 4.0625 C13.65378906 4.05573242 13.65378906 4.05573242 15.0859375 4.04882812 C17.39069041 4.03706918 19.69531227 4.02063426 22 4 C22.33 3.01 22.66 2.02 23 1 C15.41 1.33 7.82 1.66 0 2 C0 1.34 0 0.68 0 0 Z " fill="#214D69" transform="translate(60,13)"/>
<path d="M0 0 C1.49249268 0.01571045 1.49249268 0.01571045 3.01513672 0.03173828 C4.6296875 0.04140625 4.6296875 0.04140625 6.27685547 0.05126953 C7.40478516 0.06802734 8.53271484 0.08478516 9.69482422 0.10205078 C11.39832031 0.11558594 11.39832031 0.11558594 13.13623047 0.12939453 C15.94763721 0.1530198 18.7586272 0.18596065 21.56982422 0.22705078 C21.56982422 0.88705078 21.56982422 1.54705078 21.56982422 2.22705078 C18.92982422 2.22705078 16.28982422 2.22705078 13.56982422 2.22705078 C13.23982422 2.88705078 12.90982422 3.54705078 12.56982422 4.22705078 C6.47201421 4.44789702 1.35339487 4.23872753 -4.43017578 2.22705078 C-2.43017578 0.22705078 -2.43017578 0.22705078 0 0 Z " fill="#47A5D3" transform="translate(146.43017578125,4.77294921875)"/>
<path d="M0 0 C9.9 0.33 19.8 0.66 30 1 C30 1.99 30 2.98 30 4 C29.44441406 3.83628906 28.88882813 3.67257813 28.31640625 3.50390625 C25.77708338 2.95150718 23.53482956 2.90307295 20.9375 2.9375 C19.97585937 2.94523437 19.01421875 2.95296875 18.0234375 2.9609375 C16.52683594 2.98027344 16.52683594 2.98027344 15 3 C13.02088886 3.02556991 11.0417123 3.0465814 9.0625 3.0625 C8.18722656 3.07410156 7.31195313 3.08570313 6.41015625 3.09765625 C4.12288337 3.00497907 2.18907865 2.64504174 0 2 C0 1.34 0 0.68 0 0 Z " fill="#184769" transform="translate(184,26)"/>
<path d="M0 0 C2.01822917 0.06510417 4.03645833 0.13020833 6.0546875 0.1953125 C6.3846875 0.8553125 6.7146875 1.5153125 7.0546875 2.1953125 C9.37625347 2.60260478 11.7115662 2.93969927 14.0546875 3.1953125 C14.0546875 3.5253125 14.0546875 3.8553125 14.0546875 4.1953125 C8.4446875 4.8553125 2.8346875 5.5153125 -2.9453125 6.1953125 C-3.2753125 4.8753125 -3.6053125 3.5553125 -3.9453125 2.1953125 C-1.9453125 0.1953125 -1.9453125 0.1953125 0 0 Z " fill="#124C79" transform="translate(25.9453125,61.8046875)"/>
<path d="M0 0 C4.89155258 3.89327654 8.69292702 7.88816223 12.4296875 12.8984375 C13.65981486 14.54472735 14.97207009 16.12970307 16.3125 17.6875 C18.25186235 20.3451447 19.11991373 22.84635754 20 26 C19.34 26 18.68 26 18 26 C15 20.25 15 20.25 15 18 C14.38125 17.87625 13.7625 17.7525 13.125 17.625 C11 17 11 17 9 15 C9 13.68 9 12.36 9 11 C8.34 11 7.68 11 7 11 C5.2734375 9.1015625 5.2734375 9.1015625 3.375 6.625 C2.42753906 5.40683594 2.42753906 5.40683594 1.4609375 4.1640625 C0 2 0 2 0 0 Z " fill="#134C6D" transform="translate(215,30)"/>
<path d="M0 0 C1.98 0 3.96 0 6 0 C7.4606285 2.64738916 8 3.89448334 8 7 C11.46444197 8.85595105 14.2873953 10.33300647 18.25 9.5625 C19.11625 9.2840625 19.11625 9.2840625 20 9 C20 9.66 20 10.32 20 11 C15.8204355 13.78637633 13.85331323 12.79562512 9 12 C8.34 10.02 7.68 8.04 7 6 C6.34 6 5.68 6 5 6 C3.2856382 4.04072937 1.61594832 2.04119788 0 0 Z " fill="#135385" transform="translate(215,72)"/>
<path d="M0 0 C0.66 0 1.32 0 2 0 C2.2475 0.763125 2.495 1.52625 2.75 2.3125 C4.10995558 5.2364045 5.31585826 6.30004356 8 8 C6 9 6 9 2.875 8.0625 C1.92625 7.711875 0.9775 7.36125 0 7 C-0.33 7.99 -0.66 8.98 -1 10 C-3.5625 11.1875 -3.5625 11.1875 -6 12 C-5.54337885 7.89040961 -5.19432019 5.68322896 -2 3 C-1.34 2.01 -0.68 1.02 0 0 Z " fill="#115282" transform="translate(222,41)"/>
<path d="M0 0 C5.94 0 11.88 0 18 0 C18.33 1.65 18.66 3.3 19 5 C18.01 5 17.02 5 16 5 C15.34 4.34 14.68 3.68 14 3 C14.33 2.67 14.66 2.34 15 2 C8.07 1.505 8.07 1.505 1 1 C1 1.99 1 2.98 1 4 C4.96 4.33 8.92 4.66 13 5 C10.48987037 7.51012963 9.53194763 7.29721609 6.0625 7.3125 C4.74958984 7.33763672 4.74958984 7.33763672 3.41015625 7.36328125 C0.59791488 6.93939398 -0.25454479 6.18325915 -2 4 C-1.34 2.68 -0.68 1.36 0 0 Z " fill="#174563" transform="translate(22,32)"/>
<path d="M0 0 C3.3 0 6.6 0 10 0 C10.33 1.32 10.66 2.64 11 4 C10 5 10 5 7.49609375 5.09765625 C5.98208984 5.08025391 5.98208984 5.08025391 4.4375 5.0625 C3.42558594 5.05347656 2.41367188 5.04445313 1.37109375 5.03515625 C0.58863281 5.02355469 -0.19382812 5.01195312 -1 5 C-0.67 3.35 -0.34 1.7 0 0 Z " fill="#758084" transform="translate(116,12)"/>
<path d="M0 0 C3.63 0 7.26 0 11 0 C10.67 1.65 10.34 3.3 10 5 C6.37 5 2.74 5 -1 5 C-0.67 3.35 -0.34 1.7 0 0 Z " fill="#8D979D" transform="translate(150,12)"/>
<path d="M0 0 C0.33 0.66 0.66 1.32 1 2 C3.54941373 2.31241371 6.00361513 2.51303421 8.5625 2.625 C9.62887695 2.68300781 9.62887695 2.68300781 10.71679688 2.7421875 C12.47742425 2.83671783 14.23867728 2.91945817 16 3 C16 3.33 16 3.66 16 4 C12.0495047 4.19224376 8.09865416 4.37096681 4.14697266 4.53710938 C2.80240434 4.59555475 1.45799202 4.65771076 0.11376953 4.72363281 C-1.81693337 4.81767443 -3.7483203 4.89732692 -5.6796875 4.9765625 C-6.84226074 5.02893066 -8.00483398 5.08129883 -9.20263672 5.13525391 C-12 5 -12 5 -14 3 C-10.88089144 1.20724134 -8.32317572 0.65709282 -4.75 0.375 C-3.85796875 0.30023438 -2.9659375 0.22546875 -2.046875 0.1484375 C-1.37140625 0.09945312 -0.6959375 0.05046875 0 0 Z " fill="#125987" transform="translate(16,51)"/>
<path d="M0 0 C1.65 0 3.3 0 5 0 C5.33 1.98 5.66 3.96 6 6 C6.804375 5.979375 7.60875 5.95875 8.4375 5.9375 C11 6 11 6 12 7 C12.08631874 8.34267413 12.10706473 9.68974322 12.09765625 11.03515625 C12.09443359 11.84404297 12.09121094 12.65292969 12.08789062 13.48632812 C12.07951172 14.33646484 12.07113281 15.18660156 12.0625 16.0625 C12.05798828 16.91650391 12.05347656 17.77050781 12.04882812 18.65039062 C12.03700373 20.76695663 12.01906769 22.88348685 12 25 C11.67 25 11.34 25 11 25 C11 19.72 11 14.44 11 9 C9.02 9.66 7.04 10.32 5 11 C4.22157062 7.59437148 3.90021879 4.49234244 4 1 C2.68 0.67 1.36 0.34 0 0 Z " fill="#3D95B4" transform="translate(164,3)"/>
<path d="M0 0 C7.26 0 14.52 0 22 0 C20.02 0.99 20.02 0.99 18 2 C17.67 2.33 17.34 2.66 17 3 C15.65732587 3.08631874 14.31025678 3.10706473 12.96484375 3.09765625 C12.15595703 3.09443359 11.34707031 3.09121094 10.51367188 3.08789062 C9.66353516 3.07951172 8.81339844 3.07113281 7.9375 3.0625 C7.08349609 3.05798828 6.22949219 3.05347656 5.34960938 3.04882812 C3.23304337 3.03700373 1.11651315 3.01906769 -1 3 C-0.67 2.01 -0.34 1.02 0 0 Z " fill="#11547B" transform="translate(17,51)"/>
<path d="M0 0 C3.3 0 6.6 0 10 0 C10 1.65 10 3.3 10 5 C6.37 5 2.74 5 -1 5 C-0.67 3.35 -0.34 1.7 0 0 Z " fill="#4D7379" transform="translate(140,44)"/>
<path d="M0 0 C3.3 0 6.6 0 10 0 C10 1.65 10 3.3 10 5 C6.37 5 2.74 5 -1 5 C-0.67 3.35 -0.34 1.7 0 0 Z " fill="#3C5A5F" transform="translate(106,44)"/>
<path d="M0 0 C-5.78645644 1.25406138 -11.48868116 1.11186913 -17.375 1.0625 C-18.39722656 1.05798828 -19.41945313 1.05347656 -20.47265625 1.04882812 C-22.98183194 1.037103 -25.4908849 1.02069176 -28 1 C-28 0.34 -28 -0.32 -28 -1 C-23.89658886 -1.22556502 -19.79235012 -1.42750038 -15.6875 -1.625 C-14.52025391 -1.68945312 -13.35300781 -1.75390625 -12.15039062 -1.8203125 C-11.03212891 -1.871875 -9.91386719 -1.9234375 -8.76171875 -1.9765625 C-7.73006592 -2.02893066 -6.69841309 -2.08129883 -5.63549805 -2.13525391 C-3 -2 -3 -2 0 0 Z " fill="#154C73" transform="translate(80,57)"/>
<path d="M0 0 C1.74216797 0.15275391 1.74216797 0.15275391 3.51953125 0.30859375 C4.39996094 0.39238281 5.28039062 0.47617187 6.1875 0.5625 C6.1875 1.2225 6.1875 1.8825 6.1875 2.5625 C-5.33414009 3.71056378 -5.33414009 3.71056378 -10.8125 3.5625 C-11.1425 2.5725 -11.4725 1.5825 -11.8125 0.5625 C-7.71524731 -0.47917441 -4.19754776 -0.38159525 0 0 Z " fill="#888D8E" transform="translate(152.8125,20.4375)"/>
<path d="M0 0 C3 1 3 1 4.4375 3.0625 C5.2109375 4.0215625 5.2109375 4.0215625 6 5 C7.32 5 8.64 5 10 5 C10 5.66 10 6.32 10 7 C11.29217171 6.52219697 12.58372046 6.04270894 13.875 5.5625 C14.59429687 5.29566406 15.31359375 5.02882813 16.0546875 4.75390625 C18.03648845 4.02083146 18.03648845 4.02083146 20 3 C19.04193005 5.39517488 18.41334387 6.73851507 16.203125 8.13671875 C12.4199128 9.61914764 8.8520174 9.11170355 5 8 C2.23835636 5.37643854 1.19839048 3.59517145 0 0 Z " fill="#1A2232" transform="translate(200,88)"/>
<path d="M0 0 C5.61 0 11.22 0 17 0 C17.66 1.32 18.32 2.64 19 4 C18.67 4.66 18.34 5.32 18 6 C15.9375 6.625 15.9375 6.625 14 7 C14 6.34 14 5.68 14 5 C14.66 5 15.32 5 16 5 C16 4.34 16 3.68 16 3 C15.02160156 3.03480469 15.02160156 3.03480469 14.0234375 3.0703125 C8.91301097 3.17583753 4.79574967 3.01926302 0 1 C0 0.67 0 0.34 0 0 Z " fill="#24527A" transform="translate(68,51)"/>
<path d="M0 0 C0.66 0.66 1.32 1.32 2 2 C-4.83459565 8.95602248 -4.83459565 8.95602248 -9.3125 9.125 C-12 8 -12 8 -15 5 C-12.03 5 -9.06 5 -6 5 C-6 4.34 -6 3.68 -6 3 C-4.35 3 -2.7 3 -1 3 C-0.67 2.01 -0.34 1.02 0 0 Z " fill="#1A212F" transform="translate(137,89)"/>
<path d="M0 0 C2.97 0 5.94 0 9 0 C9.33 1.32 9.66 2.64 10 4 C9 5 9 5 6.93359375 5.09765625 C6.10988281 5.08605469 5.28617187 5.07445312 4.4375 5.0625 C3.61121094 5.05347656 2.78492187 5.04445313 1.93359375 5.03515625 C1.29550781 5.02355469 0.65742187 5.01195312 0 5 C0 3.35 0 1.7 0 0 Z " fill="#6B7579" transform="translate(117,28)"/>
<path d="M0 0 C3.63 0 7.26 0 11 0 C9.02 0.99 9.02 0.99 7 2 C9.64 2.66 12.28 3.32 15 4 C15 4.33 15 4.66 15 5 C10.05 5 5.1 5 0 5 C0 3.35 0 1.7 0 0 Z " fill="#656D6E" transform="translate(105,20)"/>
<path d="M0 0 C1.65 0 3.3 0 5 0 C5 1.32 5 2.64 5 4 C4.34 4 3.68 4 3 4 C1.82530556 6.34938888 1.79965111 7.95073205 1.68359375 10.5703125 C1.64169922 11.46621094 1.59980469 12.36210938 1.55664062 13.28515625 C1.51732422 14.22230469 1.47800781 15.15945312 1.4375 16.125 C1.39431641 17.06988281 1.35113281 18.01476562 1.30664062 18.98828125 C1.20040928 21.32537092 1.09836824 23.6625683 1 26 C0.67 26 0.34 26 0 26 C0 17.42 0 8.84 0 0 Z " fill="#1F5274" transform="translate(178,26)"/>
<path d="M0 0 C12.54 0 25.08 0 38 0 C38 0.66 38 1.32 38 2 C19.19 2.495 19.19 2.495 0 3 C0 2.01 0 1.02 0 0 Z " fill="#154562" transform="translate(46,65)"/>
<path d="M0 0 C11.88 0 23.76 0 36 0 C36 0.66 36 1.32 36 2 C32.25 3.125 32.25 3.125 30 2 C27.75025839 1.84504237 25.49628464 1.74989072 23.2421875 1.68359375 C22.57913605 1.66281265 21.91608459 1.64203156 21.23294067 1.62062073 C19.11373306 1.55520769 16.994401 1.49627895 14.875 1.4375 C13.43878919 1.39430691 12.00259098 1.35069236 10.56640625 1.30664062 C7.04440406 1.19953501 3.52226175 1.09824425 0 1 C0 0.67 0 0.34 0 0 Z " fill="#155E91" transform="translate(48,54)"/>
<path d="M0 0 C2.10409639 -0.02701408 4.20829178 -0.04640223 6.3125 -0.0625 C7.48425781 -0.07410156 8.65601563 -0.08570313 9.86328125 -0.09765625 C13 0 13 0 16 1 C16 1.66 16 2.32 16 3 C15.30132812 2.98839844 14.60265625 2.97679687 13.8828125 2.96484375 C12.97273438 2.95582031 12.06265625 2.94679687 11.125 2.9375 C10.22007813 2.92589844 9.31515625 2.91429687 8.3828125 2.90234375 C5.9831415 2.83750743 5.9831415 2.83750743 4 4 C3.01 3.67 2.02 3.34 1 3 C0.67 2.01 0.34 1.02 0 0 Z " fill="#145789" transform="translate(47,43)"/>
<path d="M0 0 C2.67927341 4.01891012 2.15601248 6.24161923 2 11 C0.68 11 -0.64 11 -2 11 C-5 5.375 -5 5.375 -5 2 C-3.35 1.34 -1.7 0.68 0 0 Z " fill="#114878" transform="translate(183,58)"/>
<path d="M0 0 C0.66 0 1.32 0 2 0 C4 3 4 3 4 6 C5.8871875 6.0309375 5.8871875 6.0309375 7.8125 6.0625 C8.52019531 6.07410156 9.22789062 6.08570312 9.95703125 6.09765625 C12.20305461 6.08263217 12.20305461 6.08263217 15 5 C14.67 6.32 14.34 7.64 14 9 C10.7 9 7.4 9 4 9 C2.68 6.03 1.36 3.06 0 0 Z " fill="#18445D" transform="translate(220,78)"/>
<path d="M0 0 C-0.33 0.99 -0.66 1.98 -1 3 C-2.32 3 -3.64 3 -5 3 C-5 4.98 -5 6.96 -5 9 C-6.32 8.67 -7.64 8.34 -9 8 C-9.33 6.68 -9.66 5.36 -10 4 C-9.01 3.67 -8.02 3.34 -7 3 C-7 2.34 -7 1.68 -7 1 C-3.375 -1.125 -3.375 -1.125 0 0 Z " fill="#183E60" transform="translate(122,79)"/>
<path d="M0 0 C2.64 0 5.28 0 8 0 C8 0.33 8 0.66 8 1 C13.94 1.33 19.88 1.66 26 2 C26 2.33 26 2.66 26 3 C17.09 3 8.18 3 -1 3 C-0.67 2.01 -0.34 1.02 0 0 Z " fill="#0B527B" transform="translate(56,24)"/>
<path d="M0 0 C1.09570312 0.00902344 2.19140625 0.01804688 3.3203125 0.02734375 C4.16335937 0.03894531 5.00640625 0.05054688 5.875 0.0625 C6.205 1.0525 6.535 2.0425 6.875 3.0625 C4.75027424 3.11636629 2.62516348 3.15523071 0.5 3.1875 C-1.27503906 3.22230469 -1.27503906 3.22230469 -3.0859375 3.2578125 C-6.125 3.0625 -6.125 3.0625 -8.125 1.0625 C-5.36047967 -0.31976016 -3.0788637 -0.03275387 0 0 Z " fill="#195987" transform="translate(78.125,42.9375)"/>
<path d="M0 0 C0.33 0 0.66 0 1 0 C1 8.91 1 17.82 1 27 C0.34 27 -0.32 27 -1 27 C-1.33 24.69 -1.66 22.38 -2 20 C-1.34 20 -0.68 20 0 20 C-0.33 19.01 -0.66 18.02 -1 17 C-1.02172852 15.09887695 -1.02172852 15.09887695 -0.87890625 12.98828125 C-0.83056641 12.23095703 -0.78222656 11.47363281 -0.73242188 10.69335938 C-0.64831055 9.51483398 -0.64831055 9.51483398 -0.5625 8.3125 C-0.51029297 7.51521484 -0.45808594 6.71792969 -0.40429688 5.89648438 C-0.27480978 3.93063478 -0.13809959 1.96526335 0 0 Z " fill="#1A89BF" transform="translate(171,31)"/>
<path d="M0 0 C1.32 0 2.64 0 4 0 C4.6875 1.8125 4.6875 1.8125 5 4 C3.8112793 5.63208008 3.8112793 5.63208008 2 7 C-0.17651367 7.2487793 -0.17651367 7.2487793 -2.66796875 7.07421875 C-3.56064453 7.01943359 -4.45332031 6.96464844 -5.37304688 6.90820312 C-6.76620117 6.79895508 -6.76620117 6.79895508 -8.1875 6.6875 C-9.12787109 6.62626953 -10.06824219 6.56503906 -11.03710938 6.50195312 C-13.35940957 6.34870489 -15.67971458 6.1808714 -18 6 C-18 5.67 -18 5.34 -18 5 C-16.71222656 4.93941406 -15.42445312 4.87882812 -14.09765625 4.81640625 C-12.41925841 4.73201753 -10.74087364 4.6473687 -9.0625 4.5625 C-7.78729492 4.50352539 -7.78729492 4.50352539 -6.48632812 4.44335938 C-5.67744141 4.40146484 -4.86855469 4.35957031 -4.03515625 4.31640625 C-3.2862915 4.27974854 -2.53742676 4.24309082 -1.76586914 4.20532227 C0.02461326 4.18228937 0.02461326 4.18228937 1 3 C0.34 2.34 -0.32 1.68 -1 1 C-0.67 0.67 -0.34 0.34 0 0 Z " fill="#1C4E69" transform="translate(82,22)"/>
<path d="M0 0 C3.96 0.33 7.92 0.66 12 1 C12 1.66 12 2.32 12 3 C12.66 3 13.32 3 14 3 C14 3.66 14 4.32 14 5 C9.71 4.34 5.42 3.68 1 3 C0.67 2.01 0.34 1.02 0 0 Z " fill="#39A8D9" transform="translate(91,61)"/>
<path d="M0 0 C1.32 0 2.64 0 4 0 C4 1.65 4 3.3 4 5 C-2.6 5 -9.2 5 -16 5 C-16 4.67 -16 4.34 -16 4 C-14.72125 3.855625 -13.4425 3.71125 -12.125 3.5625 C-9.74307106 3.29357254 -8.15547309 3.07773654 -6 2 C-4.45386986 2.08651631 -2.91090613 2.24002636 -1.375 2.4375 C-0.14910156 2.59025391 -0.14910156 2.59025391 1.1015625 2.74609375 C1.72804688 2.82988281 2.35453125 2.91367187 3 3 C3 2.34 3 1.68 3 1 C2.01 0.67 1.02 0.34 0 0 Z " fill="#124B72" transform="translate(60,43)"/>
<path d="M0 0 C8.91 0 17.82 0 27 0 C26.67 0.66 26.34 1.32 26 2 C19.07 1.67 12.14 1.34 5 1 C5 1.66 5 2.32 5 3 C3.35 2.67 1.7 2.34 0 2 C0 1.34 0 0.68 0 0 Z " fill="#163D5C" transform="translate(11,22)"/>
<path d="M0 0 C1.9375 0.5625 1.9375 0.5625 4 2 C4.75 5.625 4.75 5.625 5 9 C4.67 8.34 4.34 7.68 4 7 C3.443125 7.309375 2.88625 7.61875 2.3125 7.9375 C-0.12540433 9.05761821 -2.36224186 9.56037364 -5 10 C-5 9.34 -5 8.68 -5 8 C-3.35 7.67 -1.7 7.34 0 7 C0 4.69 0 2.38 0 0 Z " fill="#094067" transform="translate(233,65)"/>
<path d="M0 0 C1.75070517 0.11470137 3.50057536 0.24219028 5.25 0.375 C6.22453125 0.44460937 7.1990625 0.51421875 8.203125 0.5859375 C10.89633189 0.98465249 12.66963279 1.63507063 15 3 C11.68929162 4.00109515 8.69915231 4.10356134 5.25 4.0625 C4.26515625 4.05347656 3.2803125 4.04445313 2.265625 4.03515625 C1.51796875 4.02355469 0.7703125 4.01195313 0 4 C0 2.68 0 1.36 0 0 Z " fill="#18658E" transform="translate(98,65)"/>
<path d="M0 0 C0.98613281 0.03480469 1.97226563 0.06960937 2.98828125 0.10546875 C3.98214844 0.13253906 4.97601563 0.15960938 6 0.1875 C7.13888672 0.23970703 7.13888672 0.23970703 8.30078125 0.29296875 C8.30078125 1.28296875 8.30078125 2.27296875 8.30078125 3.29296875 C3.68078125 3.29296875 -0.93921875 3.29296875 -5.69921875 3.29296875 C-2.69921875 0.29296875 -2.69921875 0.29296875 0 0 Z " fill="#717D7E" transform="translate(149.69921875,35.70703125)"/>
<path d="M0 0 C1.65 0.33 3.3 0.66 5 1 C3.02 1.99 3.02 1.99 1 3 C3.9615696 4.4807848 6.83506295 4.35314037 10.125 4.5625 C11.40632813 4.64628906 12.68765625 4.73007812 14.0078125 4.81640625 C15.48894531 4.90728516 15.48894531 4.90728516 17 5 C17 5.33 17 5.66 17 6 C14.37493198 6.02690844 11.75013827 6.04679404 9.125 6.0625 C8.37863281 6.07087891 7.63226563 6.07925781 6.86328125 6.08789062 C1.2265625 6.11328125 1.2265625 6.11328125 -1 5 C-0.67 3.35 -0.34 1.7 0 0 Z " fill="#1B455B" transform="translate(33,13)"/>
<path d="M0 0 C0.66 1.32 1.32 2.64 2 4 C-1.96 4 -5.92 4 -10 4 C-9.67 3.01 -9.34 2.02 -9 1 C-4.545 0.505 -4.545 0.505 0 0 Z " fill="#19517D" transform="translate(49,13)"/>
<path d="M0 0 C3.96 0 7.92 0 12 0 C12 0.66 12 1.32 12 2 C12.99 2 13.98 2 15 2 C15.33 1.34 15.66 0.68 16 0 C16 0.99 16 1.98 16 3 C10.72 3 5.44 3 0 3 C0 2.01 0 1.02 0 0 Z " fill="#30A8DB" transform="translate(152,55)"/>
<path d="M0 0 C3.2578125 -0.29296875 3.2578125 -0.29296875 7.125 -0.1875 C9.04699219 -0.14689453 9.04699219 -0.14689453 11.0078125 -0.10546875 C11.99523438 -0.07066406 12.98265625 -0.03585938 14 0 C14 0.33 14 0.66 14 1 C12.95199219 1.07347656 12.95199219 1.07347656 11.8828125 1.1484375 C10.97273437 1.22320312 10.06265625 1.29796875 9.125 1.375 C8.22007813 1.44460937 7.31515625 1.51421875 6.3828125 1.5859375 C3.82058097 1.79568132 3.82058097 1.79568132 2 4 C2.99 4.99 3.98 5.98 5 7 C2.625 6.6875 2.625 6.6875 0 6 C-0.66 5.01 -1.32 4.02 -2 3 C-1.34 2.01 -0.68 1.02 0 0 Z " fill="#11415E" transform="translate(2,51)"/>
<path d="M0 0 C0.66 0.33 1.32 0.66 2 1 C-0.55274874 3.45605371 -1.85890643 3.98802939 -5.453125 4.29296875 C-6.70609375 4.25816406 -7.9590625 4.22335938 -9.25 4.1875 C-10.51328125 4.16042969 -11.7765625 4.13335937 -13.078125 4.10546875 C-14.52445313 4.05326172 -14.52445313 4.05326172 -16 4 C-12.59310318 1.72873545 -10.89736441 1.66527244 -6.875 1.4375 C-3.12085833 1.53665225 -3.12085833 1.53665225 0 0 Z " fill="#124668" transform="translate(197,83)"/>
<path d="M0 0 C1.65 0.33 3.3 0.66 5 1 C5.33 2.32 5.66 3.64 6 5 C4.35 5.33 2.7 5.66 1 6 C-0.0625 4.125 -0.0625 4.125 -1 2 C-0.67 1.34 -0.34 0.68 0 0 Z " fill="#204E72" transform="translate(85,80)"/>
<path d="M0 0 C0.98484375 0.10183594 1.9696875 0.20367187 2.984375 0.30859375 C4.10585937 0.43427734 4.10585937 0.43427734 5.25 0.5625 C1.7733662 2.70586161 -0.96229195 2.77527626 -5 2.6875 C-6.07765625 2.66945313 -7.1553125 2.65140625 -8.265625 2.6328125 C-9.08546875 2.60960937 -9.9053125 2.58640625 -10.75 2.5625 C-9.75 0.5625 -9.75 0.5625 -8.046875 -0.08984375 C-5.25636896 -0.51221626 -2.80414447 -0.30044405 0 0 Z " fill="#1A5886" transform="translate(73.75,14.4375)"/>
<path d="M0 0 C0.99 0 1.98 0 3 0 C2.67 1.65 2.34 3.3 2 5 C2.66 5 3.32 5 4 5 C4.66 6.65 5.32 8.3 6 10 C5.34 10.66 4.68 11.32 4 12 C0.46209597 8.30827405 0.40884117 4.90609405 0 0 Z " fill="#182231" transform="translate(117,82)"/>
<path d="M0 0 C5.2954069 4.02878219 8.79164462 8.17469115 12 14 C11.01 14 10.02 14 9 14 C9 13.01 9 12.02 9 11 C8.34 11 7.68 11 7 11 C5.2734375 9.1015625 5.2734375 9.1015625 3.375 6.625 C2.42753906 5.40683594 2.42753906 5.40683594 1.4609375 4.1640625 C0 2 0 2 0 0 Z " fill="#1A4161" transform="translate(215,30)"/>
<path d="M0 0 C1.09054688 0.02320313 2.18109375 0.04640625 3.3046875 0.0703125 C4.40039062 0.08835937 5.49609375 0.10640625 6.625 0.125 C7.46804687 0.14820313 8.31109375 0.17140625 9.1796875 0.1953125 C9.1796875 0.8553125 9.1796875 1.5153125 9.1796875 2.1953125 C4.16355438 3.27988182 0.22876359 3.09292603 -4.8203125 2.1953125 C-2.8203125 0.1953125 -2.8203125 0.1953125 0 0 Z " fill="#4EACDC" transform="translate(146.8203125,4.8046875)"/>
<path d="M0 0 C1.98 0 3.96 0 6 0 C5.01 0.66 4.02 1.32 3 2 C3 2.66 3 3.32 3 4 C6.63 4.33 10.26 4.66 14 5 C14 5.33 14 5.66 14 6 C11.85423363 6.02685938 9.70837355 6.04633088 7.5625 6.0625 C6.36753906 6.07410156 5.17257813 6.08570312 3.94140625 6.09765625 C1 6 1 6 0 5 C-0.04063832 3.33382885 -0.042721 1.66611905 0 0 Z " fill="#22475F" transform="translate(34,71)"/>
<path d="M0 0 C0.99 0 1.98 0 3 0 C3.19477739 1.62414378 3.38059458 3.24936423 3.5625 4.875 C3.66691406 5.77992187 3.77132812 6.68484375 3.87890625 7.6171875 C4 10 4 10 3 12 C2.34 11.67 1.68 11.34 1 11 C1.020625 10.195625 1.04125 9.39125 1.0625 8.5625 C1.29633621 6.06645115 1.29633621 6.06645115 0 5 C-0.04063832 3.33382885 -0.042721 1.66611905 0 0 Z " fill="#0B3B75" transform="translate(182,45)"/>
<path d="M0 0 C0.33 0 0.66 0 1 0 C1.33 5.94 1.66 11.88 2 18 C2.66 18.33 3.32 18.66 4 19 C3.34 19 2.68 19 2 19 C2 19.66 2 20.32 2 21 C1.34 21 0.68 21 0 21 C0 14.07 0 7.14 0 0 Z " fill="#1C5890" transform="translate(180,32)"/>
<path d="M0 0 C5.28 0 10.56 0 16 0 C16 0.33 16 0.66 16 1 C14.10507994 1.33848652 12.20901534 1.67056911 10.3125 2 C9.25675781 2.185625 8.20101563 2.37125 7.11328125 2.5625 C4.35095938 2.95068074 1.78257957 3.08259976 -1 3 C-0.67 2.01 -0.34 1.02 0 0 Z " fill="#114A67" transform="translate(17,51)"/>
<path d="M0 0 C3.63 0 7.26 0 11 0 C10.67 1.65 10.34 3.3 10 5 C8.02 5 6.04 5 4 5 C4 4.67 4 4.34 4 4 C5.65 4 7.3 4 9 4 C8.67 3.34 8.34 2.68 8 2 C5.67843403 1.59270772 3.3431213 1.25561323 1 1 C0.67 1.66 0.34 2.32 0 3 C0 2.01 0 1.02 0 0 Z " fill="#79898B" transform="translate(150,12)"/>
<path d="M0 0 C0.66 0.33 1.32 0.66 2 1 C2 2.32 2 3.64 2 5 C0 6.75 0 6.75 -2 8 C-2 7.34 -2 6.68 -2 6 C-2.99 5.67 -3.98 5.34 -5 5 C-5 4.34 -5 3.68 -5 3 C-4.360625 2.87625 -3.72125 2.7525 -3.0625 2.625 C-2.0415625 2.315625 -2.0415625 2.315625 -1 2 C-0.67 1.34 -0.34 0.68 0 0 Z " fill="#0A476D" transform="translate(237,75)"/>
<path d="M0 0 C1.32 0 2.64 0 4 0 C4 1.65 4 3.3 4 5 C2.35 5.33 0.7 5.66 -1 6 C-0.67 4.02 -0.34 2.04 0 0 Z " fill="#0A5685" transform="translate(179,54)"/>
<path d="M0 0 C-4.38436379 2.19218189 -10.36901402 1.15774649 -15 0 C-15 -0.33 -15 -0.66 -15 -1 C-13.25181409 -1.22304441 -11.50129677 -1.4278645 -9.75 -1.625 C-8.77546875 -1.74101562 -7.8009375 -1.85703125 -6.796875 -1.9765625 C-3.86570607 -2.00112537 -2.45471036 -1.5312717 0 0 Z " fill="#1D5585" transform="translate(214,30)"/>
<path d="M0 0 C1.8125 1.5625 1.8125 1.5625 3 3 C2.67 3.66 2.34 4.32 2 5 C1.319375 4.525625 0.63875 4.05125 -0.0625 3.5625 C-3.41841956 1.7774364 -6.24161481 1.36846914 -10 1 C-10 0.67 -10 0.34 -10 0 C-6.32009358 -0.94626165 -3.64834225 -1.15210808 0 0 Z " fill="#0C4065" transform="translate(217,73)"/>
<path d="M0 0 C0.93423645 3.01031744 1.04449911 3.86650268 0 7 C-1.32 6.34 -2.64 5.68 -4 5 C-4 4.01 -4 3.02 -4 2 C-2.68 1.34 -1.36 0.68 0 0 Z " fill="#23435B" transform="translate(20,60)"/>
<path d="M0 0 C2.97 0.495 2.97 0.495 6 1 C5.34 2.65 4.68 4.3 4 6 C3.01 6 2.02 6 1 6 C0.67 4.02 0.34 2.04 0 0 Z " fill="#065888" transform="translate(184,30)"/>
<path d="M0 0 C1.32 0 2.64 0 4 0 C4 1.32 4 2.64 4 4 C3.34 4 2.68 4 2 4 C2 4.66 2 5.32 2 6 C1.34 6 0.68 6 0 6 C-1.125 2.25 -1.125 2.25 0 0 Z " fill="#37B0DC" transform="translate(132,8)"/>
<path d="M0 0 C1.65 0.33 3.3 0.66 5 1 C5.33 1.99 5.66 2.98 6 4 C5.67 4.66 5.34 5.32 5 6 C2.69 6 0.38 6 -2 6 C-2 5.67 -2 5.34 -2 5 C-0.35 5 1.3 5 3 5 C3 3.68 3 2.36 3 1 C2.01 0.67 1.02 0.34 0 0 Z " fill="#1A4B5F" transform="translate(37,61)"/>
<path d="M0 0 C1.98 0 3.96 0 6 0 C6 0.99 6 1.98 6 3 C3.69 3.66 1.38 4.32 -1 5 C-0.67 3.35 -0.34 1.7 0 0 Z " fill="#486771" transform="translate(106,44)"/>
<path d="M0 0 C3 3.75 3 3.75 3 6 C4.65 6.33 6.3 6.66 8 7 C5.3333581 8.33332095 3.83319697 7.67102033 1 7 C0.67 4.69 0.34 2.38 0 0 Z " fill="#337DA5" transform="translate(89,58)"/>
<path d="M0 0 C0.66 0 1.32 0 2 0 C4 3 4 3 4 6 C4.66 6 5.32 6 6 6 C6 6.99 6 7.98 6 9 C3 8 3 8 2.05078125 6.15234375 C1.80714844 5.42144531 1.56351563 4.69054687 1.3125 3.9375 C1.06113281 3.20402344 0.80976563 2.47054687 0.55078125 1.71484375 C0.36902344 1.14894531 0.18726563 0.58304687 0 0 Z " fill="#0B415A" transform="translate(220,78)"/>
<path d="M0 0 C0.66 0 1.32 0 2 0 C2 2.31 2 4.62 2 7 C1.01 6.67 0.02 6.34 -1 6 C-1.042721 4.33388095 -1.04063832 2.66617115 -1 1 C-0.67 0.67 -0.34 0.34 0 0 Z " fill="#134873" transform="translate(234,58)"/>
<path d="M0 0 C0.99 0.99 1.98 1.98 3 3 C2.67 3.99 2.34 4.98 2 6 C-0.0625 6.6875 -0.0625 6.6875 -2 7 C-2 6.34 -2 5.68 -2 5 C-1.34 5 -0.68 5 0 5 C0 4.01 0 3.02 0 2 C-0.99 1.67 -1.98 1.34 -3 1 C-2.01 0.67 -1.02 0.34 0 0 Z " fill="#295166" transform="translate(84,51)"/>
<path d="M0 0 C1.98 0 3.96 0 6 0 C6.33 0.66 6.66 1.32 7 2 C6.34 2.66 5.68 3.32 5 4 C2 3 2 3 0 0 Z " fill="#5D6C6D" transform="translate(120,36)"/>
<path d="M0 0 C1.65 0 3.3 0 5 0 C5 0.66 5 1.32 5 2 C2.24921116 2.91692961 0.64051087 3.10886083 -2.1875 3.0625 C-4.0746875 3.0315625 -4.0746875 3.0315625 -6 3 C-6 2.67 -6 2.34 -6 2 C-4.02 2 -2.04 2 0 2 C0 1.34 0 0.68 0 0 Z " fill="#1B547B" transform="translate(80,34)"/>
<path d="M0 0 C0 0.66 0 1.32 0 2 C-2.64 2.33 -5.28 2.66 -8 3 C-8 2.34 -8 1.68 -8 1 C-5.29120665 -0.35439668 -2.99066732 -0.06501451 0 0 Z " fill="#81939A" transform="translate(124,13)"/>
<path d="M0 0 C0 0.66 0 1.32 0 2 C-3.22791555 4.1519437 -4.28400809 4.20086443 -8 4 C-6.27302455 0.54604909 -3.70696841 0 0 0 Z " fill="#185988" transform="translate(235,81)"/>
<path d="M0 0 C0.99 0.33 1.98 0.66 3 1 C2.67 1.99 2.34 2.98 2 4 C0.68 4 -0.64 4 -2 4 C-2.33 4.66 -2.66 5.32 -3 6 C-2.42655063 3.13275314 -2.1385485 2.1385485 0 0 Z " fill="#0F3953" transform="translate(119,78)"/>
<path d="M0 0 C0.33 0 0.66 0 1 0 C1 2.31 1 4.62 1 7 C0.01 7.33 -0.98 7.66 -2 8 C-2.33 7.01 -2.66 6.02 -3 5 C-1.625 2.3125 -1.625 2.3125 0 0 Z " fill="#1F5687" transform="translate(180,61)"/>
<path d="M0 0 C1.66611905 -0.042721 3.33382885 -0.04063832 5 0 C6 1 6 1 6.0625 3.5625 C6.041875 4.366875 6.02125 5.17125 6 6 C5.34 6 4.68 6 4 6 C3.896875 5.38125 3.79375 4.7625 3.6875 4.125 C3.12474627 1.63473516 3.12474627 1.63473516 0 0 Z " fill="#264D64" transform="translate(80,61)"/>
<path d="M0 0 C0 1.65 0 3.3 0 5 C-0.66 5 -1.32 5 -2 5 C-2 4.34 -2 3.68 -2 3 C-3.32 3 -4.64 3 -6 3 C-6 2.34 -6 1.68 -6 1 C-3.92446352 0.4465236 -2.15634036 0 0 0 Z " fill="#0E577A" transform="translate(194,51)"/>
<path d="M0 0 C2.97 0 5.94 0 9 0 C9 0.66 9 1.32 9 2 C6.21176345 3.0326802 5.1322726 3.04509293 2.25 2.0625 C1.5075 1.711875 0.765 1.36125 0 1 C0 0.67 0 0.34 0 0 Z " fill="#165787" transform="translate(75,54)"/>
<path d="M0 0 C0.66 0 1.32 0 2 0 C2 1.65 2 3.3 2 5 C0.02 5 -1.96 5 -4 5 C-2.71937515 3.2925002 -1.38232443 1.62626404 0 0 Z " fill="#52666A" transform="translate(148,44)"/>
<path d="" fill="#0E1218" transform="translate(0,0)"/>
<path d="" fill="#1A1C22" transform="translate(0,0)"/>
<path d="" fill="#1D4E4B" transform="translate(0,0)"/>
<path d="" fill="#24747D" transform="translate(0,0)"/>
<path d="" fill="#364058" transform="translate(0,0)"/>
<path d="" fill="#0A116E" transform="translate(0,0)"/>
<path d="" fill="#020950" transform="translate(0,0)"/>
<path d="" fill="#09086F" transform="translate(0,0)"/>
<path d="" fill="#26374D" transform="translate(0,0)"/>
<path d="" fill="#345067" transform="translate(0,0)"/>
<path d="" fill="#848E94" transform="translate(0,0)"/>
<path d="" fill="#39464A" transform="translate(0,0)"/>
<path d="" fill="#000C11" transform="translate(0,0)"/>
<path d="" fill="#364046" transform="translate(0,0)"/>
</svg>
